<?xml version="1.0" encoding="UTF-8" standalone="no"?>
<!-- Created with Inkscape (http://www.inkscape.org/) -->

<svg
   width="1500"
   height="1000"
   viewBox="0 0 1500 1000"
   version="1.1"
   id="svg5"
   xml:space="preserve"
   inkscape:version="1.2.2 (b0a8486541, 2022-12-01)"
   sodipodi:docname="map.svg"
   xmlns:inkscape="http://www.inkscape.org/namespaces/inkscape"
   xmlns:sodipodi="http://sodipodi.sourceforge.net/DTD/sodipodi-0.dtd"
   xmlns="http://www.w3.org/2000/svg"
   xmlns:svg="http://www.w3.org/2000/svg"><sodipodi:namedview
     id="namedview7"
     pagecolor="#505050"
     bordercolor="#ffffff"
     borderopacity="1"
     inkscape:showpageshadow="0"
     inkscape:pageopacity="0"
     inkscape:pagecheckerboard="1"
     inkscape:deskcolor="#505050"
     inkscape:document-units="px"
     showgrid="false"
     inkscape:zoom="0.98901497"
     inkscape:cx="595.54205"
     inkscape:cy="326.08202"
     inkscape:window-width="1920"
     inkscape:window-height="1022"
     inkscape:window-x="0"
     inkscape:window-y="0"
     inkscape:window-maximized="1"
     inkscape:current-layer="layer1" /><defs
     id="defs2"><inkscape:path-effect
       effect="spiro"
       id="path-effect370"
       is_visible="true"
       lpeversion="1" /></defs><g
     inkscape:label="Layer 1"
     inkscape:groupmode="layer"
     id="layer1"><path
       style="fill:none;stroke:#000000;stroke-width:1px;stroke-linecap:butt;stroke-linejoin:miter;stroke-opacity:1"
       d="m 1234.3647,674.45783 c -1.2495,-4.10149 -2.823,-8.10421 -4.7011,-11.9586 -1.2987,-2.66527 -2.7517,-5.27316 -4.6001,-7.59129 -1.8484,-2.31812 -4.1113,-4.34677 -6.7725,-5.65382 -3.5078,-1.72286 -7.6755,-2.10568 -11.4057,-0.94032 -3.7302,1.16537 -6.9678,3.89214 -8.6488,7.42016 -0.9941,2.0865 -1.4431,4.3817 -2.0292,6.6174 -0.5861,2.2357 -1.3504,4.49498 -2.8452,6.2578 -1.0364,1.22233 -2.381,2.15032 -3.7948,2.90485 -1.4139,0.75452 -2.9068,1.34756 -4.3711,1.99892 -4.7679,2.12096 -9.2789,4.88064 -14.2772,6.3799 -4.1101,1.23283 -8.6229,1.55683 -12.6498,0.0745 -2.8313,-1.04223 -5.2706,-2.9087 -7.6663,-4.74258 -2.3957,-1.83389 -4.8458,-3.68979 -7.6868,-4.70523 -2.941,-1.05118 -6.1621,-1.13917 -9.2499,-0.67017 -3.0878,0.46901 -6.0673,1.47522 -8.9918,2.57136 -8.6746,3.25131 -17.1557,7.3695 -26.3213,8.7151 -12.341,1.81177 -24.7663,-1.54447 -37.1275,-3.21295 -20.6153,-2.7826 -41.6501,-0.84849 -62.00677,3.434 -15.19095,3.19576 -30.23339,7.70921 -45.74236,8.37985 -4.20905,0.18201 -8.47262,0.0839 -12.57225,1.05458 -2.49881,0.59166 -4.89135,1.57128 -7.38262,2.19389 -2.49128,0.62262 -5.1738,0.87208 -7.59074,0.005 -1.56048,-0.56008 -2.94265,-1.56954 -4.03366,-2.81794 -1.091,-1.24841 -1.89757,-2.73053 -2.45685,-4.2913 -1.11856,-3.12154 -1.2525,-6.50163 -1.24379,-9.81752 0.005,-2.0563 0.0606,-4.12284 -0.22841,-6.15874 -0.28897,-2.0359 -0.94596,-4.06509 -2.22265,-5.67706 -1.22772,-1.55014 -2.97185,-2.63679 -4.83048,-3.31186 -1.85863,-0.67507 -3.83639,-0.96096 -5.80776,-1.11568 -2.83351,-0.22239 -5.68421,-0.18222 -8.51367,-0.45137 -2.82945,-0.26916 -5.68024,-0.8669 -8.15421,-2.26609 -3.13565,-1.77341 -5.44338,-4.69919 -7.44098,-7.697 -1.9976,-2.99782 -3.79089,-6.16858 -6.26867,-8.78352 -3.68304,-3.88691 -8.70919,-6.3249 -13.92096,-7.55384 -6.34988,-1.4973 -13.04188,-1.31016 -19.28661,-3.1986 -1.32336,-0.40019 -2.62602,-0.89522 -3.81622,-1.59868 -1.1902,-0.70345 -2.26849,-1.62352 -3.04082,-2.77022 -0.77202,-1.14624 -1.21881,-2.48859 -1.44641,-3.8517 -0.22761,-1.36312 -0.24368,-2.75267 -0.21021,-4.13425 0.0816,-3.36847 0.45403,-6.7251 0.52631,-10.09378 0.0723,-3.36868 -0.16563,-6.78993 -1.26515,-9.97494 -1.51886,-4.39971 -4.58447,-8.08761 -7.84558,-11.40869 -3.28672,-3.34716 -6.83695,-6.43393 -10.59095,-9.24702 -4.10093,-3.07307 -8.43948,-5.81657 -12.56864,-8.8516 -1.47269,-1.08246 -2.92423,-2.20695 -4.19415,-3.52142 -1.26993,-1.31448 -2.35918,-2.83095 -3.00599,-4.54039 -0.49386,-1.3052 -0.72058,-2.69297 -1.04925,-4.04923 -0.32867,-1.35626 -0.778,-2.71933 -1.64232,-3.81496 -0.65054,-0.82464 -1.52293,-1.47011 -2.49613,-1.8652 -0.97321,-0.3951 -2.04469,-0.54046 -3.08964,-0.43414 -1.55513,0.15822 -3.02597,0.86853 -4.22261,1.87429 -1.19663,1.00575 -2.13122,2.29662 -2.85849,3.68029 -1.98788,3.78206 -2.48749,8.27513 -4.87777,11.81663 -0.8873,1.31464 -2.02571,2.46837 -3.37038,3.30948 -1.34466,0.84111 -2.89812,1.36331 -4.48277,1.43014 -2.61605,0.11033 -5.1087,-0.99121 -7.5375,-1.96939 -3.14465,-1.26648 -6.39417,-2.36845 -9.76724,-2.70789 -6.74488,-0.67875 -13.48589,1.72449 -20.25121,1.29493 -1.61187,-0.10234 -3.2096,-0.36512 -4.81948,-0.49497 -2.77839,-0.22409 -5.57208,-0.051 -8.35911,-0.0971 -2.78703,-0.0461 -5.62044,-0.32402 -8.19288,-1.39743 -2.73125,-1.13968 -5.07616,-3.16954 -6.62964,-5.68852 -0.66506,-1.07841 -1.18663,-2.23827 -1.80362,-3.34489 -0.61698,-1.10661 -1.34556,-2.17736 -2.33621,-2.96723 -0.87682,-0.69911 -1.93751,-1.15502 -3.03939,-1.36338 -1.10189,-0.20836 -2.24382,-0.17321 -3.34294,0.0493 -2.19824,0.44497 -4.18917,1.61991 -5.94137,3.01992 -3.69108,2.94918 -6.53696,6.9709 -10.64661,9.30167 -3.96075,2.24632 -8.66669,2.67786 -13.21344,2.92399 -4.5598,0.24684 -9.13671,0.35624 -13.68927,0 -3.36486,-0.2633 -6.70979,-0.781 -9.99682,-1.5472"
       id="path368"
       inkscape:path-effect="#path-effect370"
       inkscape:original-d="m 1234.3647,674.45783 c -1.6228,-4.12145 -3.1331,-7.9714 -4.7011,-11.9586 -1.568,-3.98721 -7.5807,-8.82907 -11.3726,-13.24511 -3.7918,-4.41603 -13.3686,4.32089 -20.0545,6.47984 -6.6858,2.15894 -3.2486,8.58447 -4.8744,12.8752 -1.6258,4.29074 -5.4429,3.27018 -8.1659,4.90377 -2.723,1.63359 -9.5172,4.25427 -14.2772,6.3799 -4.7601,2.12563 -8.4322,0.0506 -12.6498,0.0745 -4.2176,0.0238 -10.2344,-6.29754 -15.3531,-9.44781 -5.1187,-3.15027 -12.1601,1.26846 -18.2417,1.90119 -6.0815,0.63272 -17.5465,5.81106 -26.3213,8.7151 -8.7748,2.90403 -24.7507,-2.14096 -37.1275,-3.21295 -12.3769,-1.07198 -41.3369,2.29034 -62.00677,3.434 -20.66991,1.14367 -30.4939,5.58757 -45.74236,8.37985 -15.24845,2.79228 -8.3805,0.70405 -12.57225,1.05458 -4.19175,0.35052 -9.98124,1.46666 -14.97336,2.19849 -4.99212,0.73183 -5.1552,-11.28351 -7.7343,-16.92676 -2.57909,-5.64326 -1.63304,-7.88953 -2.45106,-11.8358 -0.81802,-3.94627 -7.09116,-2.95069 -10.63824,-4.42754 -3.54708,-1.47685 -11.11092,-1.81064 -16.66788,-2.71746 -5.55697,-0.90681 -9.13877,-10.98601 -13.70965,-16.48052 -4.57088,-5.49451 -9.27964,-5.0349 -13.92096,-7.55384 -4.64132,-2.51895 -12.85674,-2.1314 -19.28661,-3.1986 -6.42987,-1.0672 -4.57036,-2.9116 -6.85704,-4.3689 -2.28668,-1.4573 -1.10341,-5.32297 -1.65662,-7.98595 -0.5532,-2.66299 -0.49156,-13.37814 -0.73884,-20.06872 -0.24728,-6.69057 -5.22939,-7.60479 -7.84558,-11.40869 -2.6162,-3.80389 -7.05963,-6.16368 -10.59095,-9.24702 -3.53132,-3.08334 -8.3781,-5.90007 -12.56864,-8.8516 -4.19055,-2.95154 -4.7991,-5.37354 -7.20014,-8.06181 -2.40105,-2.68827 -1.79338,-5.24179 -2.69157,-7.86419 -0.89819,-2.6224 -3.72285,-1.5319 -5.58577,-2.29934 -1.86293,-0.76745 -4.71973,3.70405 -7.0811,5.55458 -2.36136,1.85053 -3.25085,7.87875 -4.87777,11.81663 -1.62693,3.93787 -5.23443,3.16075 -7.85315,4.73962 -2.61871,1.57888 -5.024,-1.31193 -7.5375,-1.96939 -2.5135,-0.65747 -6.5105,-1.80426 -9.76724,-2.70789 -3.25675,-0.90363 -13.49981,0.86429 -20.25121,1.29493 -6.7514,0.43064 -3.21199,-0.32898 -4.81948,-0.49497 -1.6075,-0.16599 -11.03366,-0.99534 -16.55199,-1.49451 -5.51833,-0.49917 -4.41876,-3.79135 -6.62964,-5.68852 -2.21088,-1.89717 -2.75888,-4.20708 -4.13983,-6.31212 -1.38094,-2.10504 -8.2148,1.13822 -12.3237,1.70582 -4.1089,0.56761 -7.09674,6.20211 -10.64661,9.30167 -3.54987,3.09955 -8.80796,1.95032 -13.21344,2.92399 -4.40547,0.97366 -9.12518,10e-4 -13.68927,0 -4.56409,-10e-4 -6.66355,-1.03047 -9.99682,-1.5472" /></g></svg>
