<?xml version="1.0" encoding="UTF-8" standalone="no"?>
<!-- Created with Inkscape (http://www.inkscape.org/) -->

<svg
   width="1500"
   height="1000"
   viewBox="0 0 1500 1000"
   version="1.1"
   id="svg5"
   xml:space="preserve"
   inkscape:version="1.2.2 (b0a8486541, 2022-12-01)"
   sodipodi:docname="map.svg"
   xmlns:inkscape="http://www.inkscape.org/namespaces/inkscape"
   xmlns:sodipodi="http://sodipodi.sourceforge.net/DTD/sodipodi-0.dtd"
   xmlns="http://www.w3.org/2000/svg"
   xmlns:svg="http://www.w3.org/2000/svg"><sodipodi:namedview
     id="namedview7"
     pagecolor="#505050"
     bordercolor="#ffffff"
     borderopacity="1"
     inkscape:showpageshadow="0"
     inkscape:pageopacity="0"
     inkscape:pagecheckerboard="1"
     inkscape:deskcolor="#505050"
     inkscape:document-units="px"
     showgrid="false"
     inkscape:zoom="3.9441263"
     inkscape:cx="1193.4202"
     inkscape:cy="656.29237"
     inkscape:window-width="1920"
     inkscape:window-height="1022"
     inkscape:window-x="0"
     inkscape:window-y="0"
     inkscape:window-maximized="1"
     inkscape:current-layer="layer1" /><defs
     id="defs2"><inkscape:path-effect
       effect="spiro"
       id="path-effect370"
       is_visible="true"
       lpeversion="1" /></defs><g
     inkscape:label="Layer 1"
     inkscape:groupmode="layer"
     id="layer1"><path
       style="fill:none;stroke:#000000;stroke-width:1px;stroke-linecap:butt;stroke-linejoin:miter;stroke-opacity:1"
       d="m 1234.3647,674.45783 c -1.2495,-4.10149 -2.823,-8.10421 -4.7011,-11.9586 -1.2987,-2.66527 -2.7517,-5.27316 -4.6001,-7.59129 -1.8484,-2.31812 -4.1113,-4.34677 -6.7725,-5.65382 -3.5078,-1.72286 -7.6755,-2.10568 -11.4057,-0.94032 -3.7302,1.16537 -6.9678,3.89214 -8.6488,7.42016 -0.9941,2.0865 -1.4431,4.3817 -2.0292,6.6174 -0.5861,2.2357 -1.3504,4.49498 -2.8452,6.2578 -1.0364,1.22233 -2.381,2.15032 -3.7948,2.90485 -1.4139,0.75452 -2.9068,1.34756 -4.3711,1.99892 -4.7679,2.12096 -9.2789,4.88064 -14.2772,6.3799 -4.1101,1.23283 -8.6229,1.55683 -12.6498,0.0745 -2.8313,-1.04223 -5.2706,-2.9087 -7.6663,-4.74258 -2.3957,-1.83389 -4.8458,-3.68979 -7.6868,-4.70523 -2.941,-1.05118 -6.1621,-1.13917 -9.2499,-0.67017 -3.0878,0.46901 -6.0673,1.47522 -8.9918,2.57136 -8.6746,3.25131 -17.1557,7.3695 -26.3213,8.7151 -12.341,1.81177 -24.7663,-1.54447 -37.1275,-3.21295 -20.6153,-2.7826 -41.6501,-0.84849 -62.00677,3.434 -15.19095,3.19576 -30.23339,7.70921 -45.74236,8.37985 -4.20905,0.18201 -8.47262,0.0839 -12.57225,1.05458 -2.49881,0.59166 -4.89135,1.57128 -7.38262,2.19389 -2.49128,0.62262 -5.1738,0.87208 -7.59074,0.005 -1.56048,-0.56008 -2.94265,-1.56954 -4.03366,-2.81794 -1.091,-1.24841 -1.89757,-2.73053 -2.45685,-4.2913 -1.11856,-3.12154 -1.2525,-6.50163 -1.24379,-9.81752 0.005,-2.0563 0.0606,-4.12284 -0.22841,-6.15874 -0.28897,-2.0359 -0.94596,-4.06509 -2.22265,-5.67706 -1.22772,-1.55014 -2.97185,-2.63679 -4.83048,-3.31186 -1.85863,-0.67507 -3.83639,-0.96096 -5.80776,-1.11568 -2.83351,-0.22239 -5.68421,-0.18222 -8.51367,-0.45137 -2.82945,-0.26916 -5.68024,-0.8669 -8.15421,-2.26609 -3.13565,-1.77341 -5.44338,-4.69919 -7.44098,-7.697 -1.9976,-2.99782 -3.79089,-6.16858 -6.26867,-8.78352 -3.68304,-3.88691 -8.70919,-6.3249 -13.92096,-7.55384 -6.34988,-1.4973 -13.04188,-1.31016 -19.28661,-3.1986 -1.32336,-0.40019 -2.62602,-0.89522 -3.81622,-1.59868 -1.1902,-0.70345 -2.26849,-1.62352 -3.04082,-2.77022 -0.77202,-1.14624 -1.21881,-2.48859 -1.44641,-3.8517 -0.22761,-1.36312 -0.24368,-2.75267 -0.21021,-4.13425 0.0816,-3.36847 0.45403,-6.7251 0.52631,-10.09378 0.0723,-3.36868 -0.16563,-6.78993 -1.26515,-9.97494 -1.51886,-4.39971 -4.58447,-8.08761 -7.84558,-11.40869 -3.28672,-3.34716 -6.83695,-6.43393 -10.59095,-9.24702 -4.10093,-3.07307 -8.43948,-5.81657 -12.56864,-8.8516 -1.47269,-1.08246 -2.92423,-2.20695 -4.19415,-3.52142 -1.26993,-1.31448 -2.35918,-2.83095 -3.00599,-4.54039 -0.49386,-1.3052 -0.72058,-2.69297 -1.04925,-4.04923 -0.32867,-1.35626 -0.778,-2.71933 -1.64232,-3.81496 -0.65054,-0.82464 -1.52293,-1.47011 -2.49613,-1.8652 -0.97321,-0.3951 -2.04469,-0.54046 -3.08964,-0.43414 -1.55513,0.15822 -3.02597,0.86853 -4.22261,1.87429 -1.19663,1.00575 -2.13122,2.29662 -2.85849,3.68029 -1.98788,3.78206 -2.48749,8.27513 -4.87777,11.81663 -0.8873,1.31464 -2.02571,2.46837 -3.37038,3.30948 -1.34466,0.84111 -2.89812,1.36331 -4.48277,1.43014 -2.61605,0.11033 -5.1087,-0.99121 -7.5375,-1.96939 -3.14465,-1.26648 -6.39417,-2.36845 -9.76724,-2.70789 -6.74488,-0.67875 -13.48589,1.72449 -20.25121,1.29493 -1.61187,-0.10234 -3.2096,-0.36512 -4.81948,-0.49497 -2.77839,-0.22409 -5.57208,-0.051 -8.35911,-0.0971 -2.78703,-0.0461 -5.62044,-0.32402 -8.19288,-1.39743 -2.73125,-1.13968 -5.07616,-3.16954 -6.62964,-5.68852 -0.66506,-1.07841 -1.18663,-2.23827 -1.80362,-3.34489 -0.61698,-1.10661 -1.34556,-2.17736 -2.33621,-2.96723 -0.87682,-0.69911 -1.93751,-1.15502 -3.03939,-1.36338 -1.10189,-0.20836 -2.24382,-0.17321 -3.34294,0.0493 -2.19824,0.44497 -4.18917,1.61991 -5.94137,3.01992 -3.69108,2.94918 -6.53696,6.9709 -10.64661,9.30167 -3.96075,2.24632 -8.66669,2.67786 -13.21344,2.92399 -4.5598,0.24684 -9.13671,0.35624 -13.68927,0 -3.36486,-0.2633 -6.70979,-0.781 -9.99682,-1.5472"
       id="path368"
       inkscape:path-effect="#path-effect370"
       inkscape:original-d="m 636.40826,566.81568 c 3.33327,0.51673 5.43273,1.5462 9.99682,1.5472 4.56409,10e-4 9.2838,0.97366 13.68927,0 4.40548,-0.97367 9.66357,0.17556 13.21344,-2.92399 3.54987,-3.09956 6.53771,-8.73406 10.64661,-9.30167 4.1089,-0.5676 10.94276,-3.81086 12.3237,-1.70582 1.38095,2.10504 1.92895,4.41495 4.13983,6.31212 2.21088,1.89717 1.11131,5.18935 6.62964,5.68852 5.51833,0.49917 14.94449,1.32852 16.55199,1.49451 1.60749,0.16599 -1.93192,0.92561 4.81948,0.49497 6.7514,-0.43064 16.99446,-2.19856 20.25121,-1.29493 3.25674,0.90363 7.25374,2.05042 9.76724,2.70789 2.5135,0.65746 4.91879,3.54827 7.5375,1.96939 2.61872,-1.57887 6.22622,-0.80175 7.85315,-4.73962 1.62692,-3.93788 2.51641,-9.9661 4.87777,-11.81663 2.36137,-1.85053 5.21817,-6.32203 7.0811,-5.55458 1.86292,0.76744 4.68758,-0.32306 5.58577,2.29934 0.89819,2.6224 0.29052,5.17592 2.69157,7.86419 2.40104,2.68827 3.00959,5.11027 7.20014,8.06181 4.19054,2.95153 9.03732,5.76826 12.56864,8.8516 3.53132,3.08334 7.97475,5.44313 10.59095,9.24702 2.61619,3.8039 7.5983,4.71812 7.84558,11.40869 0.24728,6.69058 0.18564,17.40573 0.73884,20.06872 0.55321,2.66298 -0.63006,6.52865 1.65662,7.98595 2.28668,1.4573 0.42717,3.3017 6.85704,4.3689 6.42987,1.0672 14.64529,0.67965 19.28661,3.1986 4.64132,2.51894 9.35008,2.05933 13.92096,7.55384 4.57088,5.49451 8.15268,15.57371 13.70965,16.48052 5.55696,0.90682 13.1208,1.24061 16.66788,2.71746 3.54708,1.47685 9.82022,0.48127 10.63824,4.42754 0.81802,3.94627 -0.12803,6.19254 2.45106,11.8358 2.5791,5.64325 2.74218,17.65859 7.7343,16.92676 4.99212,-0.73183 10.78161,-1.84797 14.97336,-2.19849 4.19175,-0.35053 -2.6762,1.7377 12.57225,-1.05458 15.24846,-2.79228 25.07245,-7.23618 45.74236,-8.37985 20.66987,-1.14366 49.62987,-4.50598 62.00677,-3.434 12.3768,1.07199 28.3527,6.11698 37.1275,3.21295 8.7748,-2.90404 20.2398,-8.08238 26.3213,-8.7151 6.0816,-0.63273 13.123,-5.05146 18.2417,-1.90119 5.1187,3.15027 11.1355,9.47161 15.3531,9.44781 4.2176,-0.0239 7.8897,2.05113 12.6498,-0.0745 4.76,-2.12563 11.5542,-4.74631 14.2772,-6.3799 2.723,-1.63359 6.5401,-0.61303 8.1659,-4.90377 1.6258,-4.29073 -1.8114,-10.71626 4.8744,-12.8752 6.6859,-2.15895 16.2627,-10.89587 20.0545,-6.47984 3.7919,4.41604 9.8046,9.2579 11.3726,13.24511 1.568,3.9872 3.1351,7.9734 4.7011,11.9586 1.566,3.9852 2.843,8.50668 4.263,12.75852 1.4199,4.25183 5.3784,4.00908 8.0662,6.01213 2.6877,2.00304 9.0263,6.26096 13.538,9.38994" /><circle
       style="opacity:0;fill:#111111;fill-opacity:1;stroke:#ffffff;stroke-width:48;stroke-opacity:1"
       id="path2776"
       cx="1234.4785"
       cy="675.69324"
       r="1" /><circle
       style="opacity:0;fill:#222222;fill-opacity:1;stroke:#ffffff;stroke-width:48;stroke-opacity:1"
       id="path2815"
       cx="832.83594"
       cy="620.32227"
       r="1" /><circle
       style="opacity:0;fill:#333333;fill-opacity:1;stroke:#ffffff;stroke-width:48;stroke-opacity:1"
       id="path2817"
       cx="638.1463"
       cy="566.80469"
       r="1" /></g></svg>
