<?xml version="1.0" encoding="UTF-8" standalone="no"?>
<!-- Created with Inkscape (http://www.inkscape.org/) -->

<svg
   width="5300"
   height="2000"
   viewBox="0 0 5300 2000"
   version="1.1"
   id="svg417"
   xml:space="preserve"
   inkscape:version="1.2.2 (b0a8486541, 2022-12-01)"
   sodipodi:docname="map.svg"
   xmlns:inkscape="http://www.inkscape.org/namespaces/inkscape"
   xmlns:sodipodi="http://sodipodi.sourceforge.net/DTD/sodipodi-0.dtd"
   xmlns="http://www.w3.org/2000/svg"
   xmlns:svg="http://www.w3.org/2000/svg"><sodipodi:namedview
     id="namedview419"
     pagecolor="#505050"
     bordercolor="#ffffff"
     borderopacity="1"
     inkscape:showpageshadow="0"
     inkscape:pageopacity="0"
     inkscape:pagecheckerboard="1"
     inkscape:deskcolor="#505050"
     inkscape:document-units="px"
     showgrid="false"
     inkscape:zoom="1.6328077"
     inkscape:cx="1273.8793"
     inkscape:cy="381.85757"
     inkscape:window-width="1920"
     inkscape:window-height="1022"
     inkscape:window-x="0"
     inkscape:window-y="0"
     inkscape:window-maximized="1"
     inkscape:current-layer="layer1" /><defs
     id="defs414"><inkscape:path-effect
       effect="spiro"
       id="path-effect511"
       is_visible="true"
       lpeversion="1" /><inkscape:path-effect
       effect="spiro"
       id="path-effect354"
       is_visible="true"
       lpeversion="1" /><inkscape:path-effect
       effect="spiro"
       id="path-effect350"
       is_visible="true"
       lpeversion="1" /><inkscape:path-effect
       effect="spiro"
       id="path-effect346"
       is_visible="true"
       lpeversion="1" /><inkscape:path-effect
       effect="spiro"
       id="path-effect558"
       is_visible="true"
       lpeversion="1" /></defs><g
     inkscape:label="Layer 1"
     inkscape:groupmode="layer"
     id="layer1"><path
       style="fill:none;stroke:#000000;stroke-width:1px;stroke-linecap:butt;stroke-linejoin:miter;stroke-opacity:1"
       d="m 4265.2474,1569.0641 c -6.2582,0.2175 -12.5576,-0.8272 -18.4105,-3.0533 -6.8447,-2.6033 -13.0524,-6.8131 -18.1298,-12.0902 -4.1736,-4.3378 -7.6401,-9.4227 -12.4676,-13.0186 -3.8546,-2.8713 -8.4314,-4.6656 -13.1203,-5.7223 -4.6889,-1.0567 -9.5082,-1.4021 -14.3111,-1.587 -9.5435,-0.3673 -19.3388,-0.1526 -28.319,-3.4036 -2.4261,-0.8783 -4.7952,-2.0103 -7.3499,-2.3725 -2.2635,-0.3209 -4.5806,-0.018 -6.7849,0.5884 -2.2042,0.6065 -4.3132,1.5109 -6.413,2.4149 -5.4587,2.3502 -11.1677,4.7655 -17.0993,4.3967 -2.1443,-0.1333 -4.2465,-0.6304 -6.3606,-1.0131 -2.1141,-0.3828 -4.283,-0.6521 -6.4067,-0.3266 -2.3972,0.3674 -4.6194,1.4756 -6.6775,2.7583 -2.0582,1.2828 -3.9978,2.7541 -6.1029,3.9582 -3.9693,2.2704 -8.541,3.5537 -13.111,3.3932 -3.827,-0.1344 -7.6492,-1.2603 -11.4352,-0.6858 -2.2386,0.3397 -4.3521,1.2642 -6.3161,2.3908 -1.964,1.1267 -3.801,2.4591 -5.6976,3.6959 -4.0873,2.6654 -8.5744,4.9262 -13.4167,5.5275 -2.4212,0.3006 -4.9087,0.1743 -7.2511,-0.508 -2.3424,-0.6823 -4.5354,-1.9325 -6.2171,-3.7001 -2.2939,-2.4112 -3.5522,-5.6569 -5.8285,-8.0847 -1.5626,-1.6666 -3.5392,-2.8776 -5.2981,-4.3355 -0.8795,-0.7289 -1.7107,-1.5264 -2.3846,-2.4487 -0.6739,-0.9223 -1.1879,-1.9761 -1.3882,-3.1007 -0.2832,-1.5901 0.07,-3.2263 0.5761,-4.7601 0.5059,-1.5338 1.1667,-3.0208 1.5267,-4.5953 0.8378,-3.6644 -0.047,-7.5975 -1.9677,-10.8288 -1.3304,-2.2384 -3.147,-4.2063 -4.1052,-6.6275 -0.3755,-0.9489 -0.6122,-1.9634 -0.5873,-2.9836 0.025,-1.0201 0.3227,-2.0473 0.9342,-2.8643 0.548,-0.7322 1.3192,-1.2665 2.1194,-1.7094 0.8002,-0.4428 1.6429,-0.8075 2.4277,-1.277 0.7848,-0.4695 1.5231,-1.0595 1.9945,-1.8432 0.2357,-0.3919 0.4008,-0.829 0.4579,-1.2827 0.057,-0.4536 0,-0.924 -0.1764,-1.3442 -0.2969,-0.6922 -0.9339,-1.2144 -1.6549,-1.4324 -0.721,-0.2179 -1.5144,-0.1452 -2.212,0.139 -0.6975,0.2842 -1.3021,0.7707 -1.7844,1.3493 -0.4823,0.5785 -0.847,1.2477 -1.1385,1.9422 -0.8084,1.9259 -1.0636,4.0621 -0.8737,6.1421 0.1898,2.0801 0.8147,4.1066 1.6995,5.9987 0.9061,1.9377 2.0796,3.7361 3.1313,5.5988 1.0517,1.8627 1.9934,3.8237 2.3759,5.9283 0.4217,2.3203 0.1368,4.7505 -0.7149,6.9497 -0.8517,2.1991 -2.259,4.168 -3.9951,5.7641 -2.5196,2.3164 -5.6943,3.8359 -8.9877,4.7672 -4.7439,1.3415 -9.8399,1.5038 -14.6177,0.2886 -6.4114,-1.6307 -12.038,-5.674 -16.3636,-10.6795 -2.2654,-2.6215 -4.2035,-5.5049 -6.2093,-8.33 -2.8215,-3.9741 -5.7866,-7.8453 -8.8544,-11.6325 -1.9077,-2.3551 -3.8632,-4.6863 -6.1064,-6.7245 -2.2431,-2.0382 -4.7931,-3.7854 -7.6422,-4.819 -3.3252,-1.2063 -7.009,-1.3966 -10.4446,-0.5548 -4.104,1.0056 -7.7673,3.4148 -11.8892,4.3442 -2.2422,0.5055 -4.5922,0.5566 -6.8429,0.09 -2.2508,-0.4662 -4.3987,-1.4539 -6.181,-2.9053 -3.1802,-2.5899 -5.0859,-6.6837 -4.994,-10.7841 0.088,-3.9221 1.8771,-7.6142 2.3354,-11.5104 0.4052,-3.4444 -0.2578,-6.9781 -1.6876,-10.1378 -1.4298,-3.1596 -3.6076,-5.9528 -6.1792,-8.2797 -5.7376,-5.1917 -13.1983,-7.9695 -19.8321,-11.9527 -5.6813,-3.4112 -10.8284,-7.7797 -14.8101,-13.0768 -1.2405,-1.6504 -2.3751,-3.4046 -3.0975,-5.3387 -1.0388,-2.781 -1.182,-5.8002 -1.5868,-8.7412 -0.5682,-4.1286 -1.6687,-8.1739 -2.1471,-12.3139 -0.4085,-3.5351 -0.3598,-7.1106 -0.7522,-10.6475 -0.3868,-3.4862 -1.2302,-6.9902 -3.0814,-9.9695 -0.9257,-1.4896 -2.0996,-2.8337 -3.5043,-3.8837 -1.4047,-1.0501 -3.0437,-1.801 -4.7725,-2.0959 -2.6899,-0.4588 -5.437,0.1894 -8.0608,0.939 -8.9674,2.5618 -17.5871,6.3598 -26.7247,8.2258 -4.4642,0.9116 -9.0315,1.3572 -13.4059,2.6318 -3.8629,1.1256 -7.5086,2.8785 -11.2606,4.3315 -3.7521,1.453 -7.7051,2.6203 -11.7265,2.4872 -2.9354,-0.097 -5.7981,-0.8831 -8.6408,-1.6215 -2.8427,-0.7385 -5.7386,-1.4391 -8.6746,-1.36 -4.7161,0.1271 -9.1642,2.249 -13.8547,2.756 -6.0676,0.6558 -12.1823,-1.4636 -17.3063,-4.7788 -4.3028,-2.7839 -8.1048,-6.435 -12.8447,-8.3836 -4.9317,-2.0275 -10.4346,-2.0297 -15.6348,-3.2086 -4.3809,-0.9931 -8.5337,-2.8216 -12.489,-4.951 -4.1538,-2.2362 -8.1225,-4.8141 -12.3525,-6.9027 -7.0891,-3.5003 -14.919,-5.5899 -22.8246,-5.6839 -5.2745,-0.063 -10.5139,0.752 -15.7628,1.2748 -5.2489,0.5229 -10.6107,0.7475 -15.7424,-0.473 -6.8972,-1.6404 -12.9263,-5.7723 -19.5921,-8.1869 -3.6352,-1.3168 -7.4352,-2.1137 -11.1398,-3.2206 -3.7046,-1.1068 -7.3815,-2.5627 -10.3801,-5.0035 -2.5117,-2.0445 -4.4494,-4.6996 -6.2299,-7.4049 -1.7804,-2.7053 -3.4422,-5.5044 -5.5302,-7.9801 -4.9942,-5.9214 -12.0615,-9.6023 -18.5439,-13.8431 -7.4453,-4.8707 -14.3396,-10.6788 -19.8739,-17.645 -1.998,-2.5149 -3.8294,-5.1907 -6.1868,-7.3723 -2.3611,-2.185 -5.1755,-3.8056 -7.8378,-5.6116 -2.6622,-1.806 -5.2515,-3.8811 -6.8652,-6.6641 -1.2262,-2.1147 -1.8241,-4.5267 -2.3649,-6.9106 -0.5408,-2.3839 -1.0487,-4.8048 -2.122,-7.0011 -1.5842,-3.2419 -4.2945,-5.7823 -7.0818,-8.0737 -2.7873,-2.2914 -5.7379,-4.4386 -8.0512,-7.2078 -3.8147,-4.5665 -5.6102,-10.4662 -8.7967,-15.4912 -2.113,-3.3321 -4.8577,-6.2829 -8.1313,-8.4854 -3.2735,-2.2026 -7.0819,-3.6427 -11.0128,-3.982 -6.5679,-0.567 -13.1339,1.9034 -19.6905,1.2179 -4.8735,-0.5095 -9.5323,-2.748 -14.4296,-2.5839 -3.7572,0.1259 -7.357,1.6828 -10.4398,3.8342 -3.0828,2.1514 -5.7086,4.8836 -8.2728,7.6326 -2.0936,2.2445 -4.1778,4.5356 -5.7255,7.1862 -1.5478,2.6506 -2.5386,5.7178 -2.2584,8.7744 0.1459,1.5911 0.6277,3.1287 1.055,4.6683 0.4273,1.5395 0.8052,3.1195 0.7351,4.7157 -0.072,1.637 -0.6114,3.2141 -1.1838,4.7495 -0.5724,1.5354 -1.1876,3.0731 -1.4225,4.6948 -0.3391,2.3413 0.1323,4.7161 0.6156,7.0319 0.9175,4.3966 1.8834,8.9763 0.7661,13.3264 -0.4763,1.8547 -1.349,3.6414 -2.7192,4.979 -1.3702,1.3376 -3.2717,2.1869 -5.1824,2.0611 -1.5505,-0.1021 -3.0032,-0.8219 -4.2569,-1.7398 -1.2537,-0.918 -2.3443,-2.0362 -3.5009,-3.0738 -0.9764,-0.8759 -2.0031,-1.697 -2.934,-2.6211 -0.931,-0.924 -1.7721,-1.964 -2.2958,-3.1666 -0.508,-1.1665 -0.6999,-2.4413 -1.0263,-3.671 -0.3264,-1.2297 -0.8256,-2.474 -1.7879,-3.3063 -0.846,-0.7318 -1.9552,-1.0658 -3.0275,-1.3847 -1.0722,-0.3189 -2.1804,-0.662 -3.0156,-1.4061 -0.8058,-0.7179 -1.2756,-1.7425 -1.5754,-2.7792 -0.2999,-1.0368 -0.4516,-2.1116 -0.7459,-3.15 -0.291,-1.0268 -0.7263,-2.0228 -1.3747,-2.8705 -0.6485,-0.8476 -1.5197,-1.5422 -2.5306,-1.8844 -0.9718,-0.329 -2.0444,-0.3207 -3.0309,-0.039 -0.9864,0.282 -1.8875,0.8299 -2.6385,1.5289 -1.502,1.398 -2.3788,3.3463 -2.9458,5.3183 -0.9622,3.3462 -1.1387,6.8844 -2.1664,10.211 -0.5383,1.7424 -1.3124,3.4209 -2.3821,4.898 -1.0696,1.477 -2.4411,2.7493 -4.0496,3.6085 -1.6559,0.8845 -3.5202,1.314 -5.3842,1.5371 -1.864,0.2231 -3.7454,0.2487 -5.6184,0.3767 -7.2775,0.4972 -14.5733,2.5366 -21.7665,1.3251 -4.4733,-0.7534 -8.6797,-2.7525 -12.3607,-5.4037 -3.681,-2.6511 -6.8615,-5.9432 -9.742,-9.4475 -1.9637,-2.3889 -3.7985,-4.8854 -5.8578,-7.1923 -1.8839,-2.1104 -3.9674,-4.0688 -6.3639,-5.5721 -2.3966,-1.5032 -5.1243,-2.5405 -7.9477,-2.7172 -4.1091,-0.2572 -8.1356,1.2948 -12.2524,1.3466 -5.1654,0.065 -10.1078,-2.2489 -14.2723,-5.3056 -4.1644,-3.0566 -7.7144,-6.8576 -11.5454,-10.3231 -1.6269,-1.4717 -3.3097,-2.8875 -4.8188,-4.4798 -1.5092,-1.5922 -2.8518,-3.3799 -3.6737,-5.4139 -1.2507,-3.095 -1.2278,-6.564 -2.2556,-9.74 -0.4284,-1.3238 -1.0352,-2.5833 -1.492,-3.8976 -0.4567,-1.3143 -0.7635,-2.7187 -0.5602,-4.0952 0.2028,-1.3731 0.8943,-2.6168 1.5326,-3.8493 0.6383,-1.2325 1.2475,-2.5386 1.2622,-3.9265 0.012,-1.0915 -0.3567,-2.1728 -0.9736,-3.0732 -0.617,-0.9005 -1.4746,-1.6238 -2.433,-2.1462 -1.9168,-1.0449 -4.173,-1.2805 -6.3555,-1.2321 -3.8632,0.086 -7.7727,1.0362 -10.9852,3.1836 -1.7662,1.1806 -3.2825,2.6903 -4.8891,4.0803 -1.6066,1.39 -3.3554,2.6895 -5.3807,3.3309 -2.4903,0.7887 -5.2224,0.5127 -7.7021,-0.3088 -2.4796,-0.8215 -4.7512,-2.1604 -6.9814,-3.5206 -2.2212,-1.3547 -4.4353,-2.747 -6.8355,-3.7512 -2.4001,-1.0043 -5.0226,-1.6109 -7.6074,-1.3142 -1.7652,0.2026 -3.4583,0.8174 -5.2126,1.0985 -0.8772,0.1406 -1.7744,0.1969 -2.6542,0.074 -0.8799,-0.1229 -1.7442,-0.4317 -2.4515,-0.9693 -0.6962,-0.5292 -1.2214,-1.2675 -1.5491,-2.0783 -0.3277,-0.8107 -0.463,-1.6921 -0.4543,-2.5666 0.017,-1.7489 0.5953,-3.4403 1.2272,-5.0712 1.4167,-3.6566 3.1379,-7.1938 5.1131,-10.5814 1.4644,-2.5116 3.0703,-4.945 4.3722,-7.5445 1.3019,-2.5996 2.3022,-5.4018 2.4511,-8.3053 0.1628,-3.1765 -0.7173,-6.3714 -2.3215,-9.1179 -1.6042,-2.7464 -3.9128,-5.0522 -6.5579,-6.8185 -2.3583,-1.5748 -4.9755,-2.73 -7.3398,-4.2959 -1.1821,-0.783 -2.3028,-1.6717 -3.248,-2.7285 -0.9452,-1.0569 -1.7128,-2.2882 -2.1339,-3.6421 -0.6026,-1.9375 -0.4703,-4.05 0.085,-6.0015 0.5556,-1.9515 1.516,-3.7632 2.5634,-5.501 1.1671,-1.9363 2.4513,-3.8029 3.5425,-5.7829 1.0913,-1.9801 1.9939,-4.0967 2.3236,-6.3334 0.4211,-2.8567 -0.1164,-5.7966 -1.1734,-8.4837 -1.0571,-2.6871 -2.6175,-5.1469 -4.2917,-7.4996 -3.3482,-4.7054 -7.2759,-9.2255 -8.8353,-14.786 -1.2318,-4.3925 -0.8505,-9.1645 0.7392,-13.4405 1.6535,-4.4476 4.526,-8.3161 6.8948,-12.4275 0.9911,-1.7203 1.9029,-3.5038 2.4507,-5.4121 0.5477,-1.9084 0.7179,-3.9592 0.2222,-5.8817 -0.3977,-1.5424 -1.2149,-2.9617 -2.2724,-4.1529 -1.0574,-1.1912 -2.3505,-2.16 -3.7416,-2.936 -4.2104,-2.3487 -9.1458,-2.8958 -13.8752,-3.8325 -2.3646,-0.4683 -4.7214,-1.0488 -6.9319,-2.0104 -2.2105,-0.9616 -4.2805,-2.3225 -5.8298,-4.1693 -0.9892,-1.1791 -1.7474,-2.5299 -2.5581,-3.8381 -0.8107,-1.3083 -1.6949,-2.5989 -2.8748,-3.5871 -1.7562,-1.4708 -4.019,-2.1564 -6.2058,-2.8385 -2.1867,-0.6822 -4.4406,-1.4404 -6.1089,-3.0101 -1.2821,-1.2063 -2.1242,-2.8138 -2.7105,-4.4737 -0.5863,-1.6599 -0.9376,-3.3916 -1.3855,-5.094 -2.948,-11.2045 -10.067,-21.11429 -11.9801,-32.54109 -0.3992,-2.38454 -0.5685,-4.82324 -1.3042,-7.12631 -0.3679,-1.15154 -0.8793,-2.26523 -1.5965,-3.23831 -0.7173,-0.97308 -1.6471,-1.803 -2.7408,-2.31797 -1.055,-0.49673 -2.2413,-0.68979 -3.4056,-0.62483 -1.1642,0.065 -2.307,0.38246 -3.37,0.86175 -2.1259,0.95858 -3.907,2.53595 -5.5723,4.16857 -0.924,0.90583 -1.8312,1.84245 -2.8993,2.57281 -1.0681,0.73036 -2.328,1.24934 -3.6212,1.20547 -0.9362,-0.0318 -1.8527,-0.36092 -2.6269,-0.88821 -0.7742,-0.52728 -1.4086,-1.24758 -1.8821,-2.0558 -0.947,-1.61645 -1.2426,-3.53838 -1.2562,-5.41177 -0.014,-1.97007 0.2618,-3.93134 0.3089,-5.9009 0.047,-1.96956 -0.1514,-3.99986 -1.0482,-5.75401 -1.023,-2.00095 -2.8866,-3.47966 -4.9354,-4.40319 -2.0488,-0.92352 -4.2873,-1.33975 -6.5144,-1.64052 -8.5411,-1.15348 -17.2489,-0.72081 -25.761,-2.07173 -2.2442,-0.35616 -4.4934,-0.84388 -6.5422,-1.82652 -2.0488,-0.98265 -3.9001,-2.50307 -4.9368,-4.52505 -0.6575,-1.28237 -0.9661,-2.71366 -1.1822,-4.13846 -0.2162,-1.4248 -0.3473,-2.86562 -0.6807,-4.26763 -0.9628,-4.04886 -3.6914,-7.65857 -7.3574,-9.62858 -2.3245,-1.24912 -4.9412,-1.83855 -7.5402,-2.29549 -2.5989,-0.45695 -5.2321,-0.79856 -7.7445,-1.60552 -5.465,-1.7553 -9.9758,-5.56854 -14.5827,-8.9926 -3.7536,-2.78988 -7.6826,-5.38221 -11.9424,-7.31291 -4.2597,-1.93071 -8.8736,-3.1886 -13.5504,-3.22114 -4.2366,-0.0295 -8.4887,0.93881 -12.6828,0.33997 -4.2721,-0.60998 -8.2539,-2.87898 -11.101,-6.12203 -1.9356,-2.2048 -3.3485,-4.81112 -5.0654,-7.19018 -1.7169,-2.37906 -3.8599,-4.61223 -6.6333,-5.56937 -2.441,-0.84243 -5.112,-0.61097 -7.6665,-0.2337 -2.5546,0.37728 -5.1353,0.89165 -7.699,0.58249 -3.5432,-0.42729 -6.6878,-2.37361 -9.9795,-3.75261 -7.7804,-3.25942 -16.4833,-3.36547 -24.6715,-5.39318 -4.8382,-1.19812 -9.5495,-3.0792 -14.518,-3.47596 -4.1235,-0.32928 -8.2572,0.38063 -12.2996,1.25835 -4.0424,0.87771 -8.0654,1.929 -12.1856,2.2975 -5.3447,0.47801 -10.947,-0.27341 -15.5203,-3.08034 -3.7361,-2.29308 -6.5996,-5.82367 -10.3757,-8.05027 -2.9389,-1.73296 -6.3095,-2.6007 -9.6787,-3.13789 -3.3693,-0.53718 -6.7829,-0.76444 -10.148,-1.32718 -6.4269,-1.07475 -12.7277,-3.42998 -17.8448,-7.46413 -5.2095,-4.10698 -8.9678,-9.73939 -12.5103,-15.34806 -10.8003,-17.09959 -20.4349,-34.90167 -30.2659,-52.57631 -3.9627,-7.12442 -7.9826,-14.26617 -13.0689,-20.63721 -0.964,-1.20747 -1.9735,-2.39385 -3.1816,-3.35704 -1.2081,-0.96319 -2.6352,-1.6991 -4.1685,-1.88948 -2.0278,-0.25178 -4.082,0.47304 -5.7805,1.60914 -1.6984,1.13609 -3.0936,2.66238 -4.4504,4.19028 -1.4054,1.58259 -2.7964,3.19111 -4.4134,4.55669 -1.6171,1.36559 -3.4874,2.49034 -5.5542,2.94638 -1.9468,0.42956 -3.9762,0.24985 -5.944,-0.0704 -1.9677,-0.32027 -3.9188,-0.77953 -5.9084,-0.90684 -1.82,-0.11646 -3.6448,0.0467 -5.4681,0.081 -1.8234,0.0342 -3.6813,-0.0669 -5.3964,-0.6868 -2.5292,-0.91421 -4.5308,-2.87128 -6.302,-4.89503 -1.7713,-2.02374 -3.4275,-4.19724 -5.6048,-5.7759 -2.8559,-2.07064 -6.3774,-2.95558 -9.8048,-3.79017 -3.4274,-0.8346 -6.95,-1.70392 -9.8227,-3.75117 -3.2649,-2.32681 -5.3549,-5.93358 -8.2006,-8.7577 -2.7584,-2.73741 -6.2222,-4.71536 -9.9067,-5.95078 -3.6845,-1.23541 -7.5882,-1.74491 -11.4743,-1.76253 -3.2821,-0.0149 -6.7162,0.3682 -9.452,2.18147 -1.6484,1.09258 -2.954,2.65794 -3.89,4.40006 -0.936,1.74213 -1.5147,3.65918 -1.8754,5.60366 -0.8778,4.73211 -0.4811,9.64101 0.6715,14.31379 0.4196,1.70094 0.9385,3.37964 1.2481,5.104 0.3095,1.72436 0.4041,3.51726 -0.025,5.2157 -0.5749,2.27308 -2.0489,4.22335 -3.7353,5.85224 -1.6865,1.62889 -3.6062,2.9959 -5.3617,4.55006 -2.3515,2.08172 -4.4498,4.52932 -7.2208,6.00734 -2.9787,1.58879 -6.4865,1.90799 -9.8536,1.66456 -3.3671,-0.24344 -6.6719,-1.01317 -10.0156,-1.47824 -4.8963,-0.68102 -9.9326,-0.72003 -14.6271,-2.26923 -5.4931,-1.81276 -10.1046,-5.55245 -15.1694,-8.34683 -8.2006,-4.52451 -17.5049,-6.52814 -26.5647,-8.90336 -2.6011,-0.68194 -5.2093,-1.40467 -7.6345,-2.56633 -2.4251,-1.16166 -4.6792,-2.79437 -6.2124,-5.0035 -1.5328,-2.20864 -2.2914,-4.90287 -3.9622,-7.00907 -1.3999,-1.76477 -3.3745,-3.01468 -5.4826,-3.80866 -2.108,-0.79399 -4.3544,-1.15604 -6.5968,-1.37066 -7.8415,-0.75054 -15.8579,0.23929 -23.5524,-1.44797 -1.5224,-0.33384 -3.0221,-0.77092 -4.5544,-1.056 -1.5323,-0.28507 -3.1149,-0.41582 -4.6474,-0.13192 -1.6515,0.30594 -3.1786,1.07977 -4.6205,1.94104 -1.442,0.86128 -2.8296,1.82127 -4.3407,2.55448 -3.1924,1.549 -6.8858,2.02166 -10.3768,1.38626 -2.6463,-0.48164 -5.1366,-1.56833 -7.681,-2.44061 -2.5443,-0.87227 -5.2483,-1.54011 -7.9081,-1.14003 -1.8815,0.283 -3.6476,1.08926 -5.289,2.05144 -1.6414,0.96218 -3.1826,2.08589 -4.8057,3.07869 -2.3358,1.42878 -4.848,2.59128 -6.9988,4.28585 -1.0754,0.84728 -2.0565,1.82868 -2.8072,2.97359 -0.7507,1.14491 -1.2656,2.45984 -1.3767,3.8244 -0.1295,1.58982 0.2873,3.17542 0.8376,4.67257 0.6211,1.68968 1.425,3.34799 1.5992,5.13976 0.087,0.89588 0.01,1.81867 -0.3224,2.6555 -0.3315,0.83684 -0.9297,1.5826 -1.7245,2.00507 -0.5756,0.30596 -1.2363,0.43511 -1.8881,0.42125 -0.6517,-0.0139 -1.2955,-0.16679 -1.905,-0.3978 -1.2192,-0.46203 -2.2954,-1.22593 -3.4152,-1.89365 -1.2819,-0.76441 -2.6433,-1.41245 -4.0854,-1.79717 -1.4422,-0.38472 -2.9704,-0.49983 -4.4336,-0.20513 -1.4631,0.29471 -2.8575,1.0149 -3.8529,2.12701 -0.9955,1.11211 -1.5643,2.62645 -1.4237,4.11237 0.1179,1.246 0.7078,2.39875 1.391,3.4474 0.6831,1.04866 1.4717,2.03179 2.0619,3.13543 0.7589,1.41907 1.174,3.04102 1.0522,4.64567 -0.1218,1.60466 -0.8037,3.18413 -1.9828,4.27938 -0.957,0.88897 -2.2024,1.43293 -3.4867,1.67099 -1.2843,0.23807 -2.6092,0.18288 -3.8997,-0.0188 -4.4426,-0.69428 -8.4619,-3.07378 -12.8643,-3.98885 -4.248,-0.88297 -8.7387,-0.3782 -12.8864,-1.65172 -2.8299,-0.86891 -5.3739,-2.54156 -7.4972,-4.60433 -2.1233,-2.06278 -3.8433,-4.50956 -5.3196,-7.07552 -2.18,-3.78917 -3.9355,-7.97249 -7.2029,-10.87664 -2.384,-2.11894 -5.4013,-3.38728 -8.4418,-4.35087 -3.3379,-1.05781 -6.7717,-1.79279 -10.1053,-2.86366 -3.3337,-1.07087 -6.6119,-2.50864 -9.2734,-4.7839 -3.2086,-2.74297 -5.3563,-6.58847 -6.5184,-10.64658 -1.1621,-4.05811 -1.3877,-8.33394 -1.1958,-12.5508 0.3653,-8.02769 2.213,-15.96363 2.1199,-23.99909 -0.055,-4.70079 -0.8569,-9.59103 -3.6131,-13.3994 -2.0517,-2.83498 -5.1021,-4.89388 -8.446,-5.92586 -3.3439,-1.03199 -6.964,-1.06058 -10.3744,-0.27564 -5.2672,1.21231 -9.9441,4.27489 -15.1611,5.68753 -4.8542,1.3144 -9.9639,1.14917 -14.9889,1.35034 -1.4432,0.0578 -2.8992,0.1458 -4.3235,-0.0939 -1.4243,-0.23967 -2.8394,-0.84433 -3.7677,-1.95082 -0.6619,-0.78899 -1.0385,-1.78813 -1.2076,-2.80404 -0.1692,-1.0159 -0.1415,-2.05427 -0.068,-3.08154 0.2954,-4.13681 1.3226,-8.24165 1.0454,-12.37971 -0.4156,-6.2037 -3.6896,-11.79167 -6.644,-17.26252 -2.438,-4.51467 -4.7536,-9.26409 -5.1624,-14.37868 -0.3405,-4.25907 0.6661,-8.50426 1.8206,-12.61799 1.4119,-5.03098 3.0608,-10.01494 3.9047,-15.1717 0.8439,-5.15675 0.8462,-10.57194 -0.9803,-15.46767 -2.3259,-6.23451 -7.383,-11.09285 -10.1069,-17.16404 -2.4031,-5.35605 -2.8569,-11.54071 -1.3817,-17.22276 0.5589,-2.15252 1.3943,-4.25227 2.6602,-6.08075 1.2658,-1.82849 2.9806,-3.37897 5.0241,-4.25637 1.7322,-0.74374 3.6301,-0.98465 5.4906,-1.28841 1.8604,-0.30376 3.7557,-0.69524 5.3568,-1.69025 1.6244,-1.00951 2.8219,-2.56108 4.0327,-4.04155 1.6875,-2.0633 3.4751,-4.05871 4.9047,-6.30844 1.4296,-2.24972 2.4997,-4.80464 2.5692,-7.46924 0.062,-2.37061 -0.6828,-4.73006 -1.9481,-6.73573 -1.2652,-2.00568 -3.0348,-3.66729 -5.0231,-4.95962 -5.2254,-3.39632 -11.9854,-4.18088 -17.9578,-2.40035 -4.2383,1.26355 -8.1097,3.73192 -12.4765,4.43232 -4.4885,0.71992 -9.0447,-0.49758 -13.5897,-0.58538 -6.2951,-0.1216 -12.4046,1.91825 -18.399,3.84464 -6.0781,1.9533 -12.4093,3.8359 -18.7468,3.06454 -5.6569,-0.68853 -10.8181,-3.43173 -16.1355,-5.48118 -8.1804,-3.15293 -16.922,-4.70485 -25.6765,-5.17329 -5.4516,-0.2917 -11.0025,-0.18159 -16.2485,-1.69313 -8.2815,-2.38619 -15.2465,-8.99982 -17.9589,-17.18031 -2.0098,-6.06148 -1.7503,-12.62173 -2.9094,-18.90164 -0.4011,-2.17325 -0.9857,-4.3455 -2.1071,-6.24984 -1.1213,-1.90435 -2.8331,-3.53196 -4.9419,-4.19299 -2.0399,-0.63945 -4.2577,-0.33452 -6.3224,0.21989 -2.0646,0.55441 -4.0693,1.35253 -6.1776,1.70631 -2.5335,0.42514 -5.1739,0.18604 -7.5944,-0.67457 -2.4206,-0.86062 -4.6166,-2.33967 -6.3341,-4.25015 -2.53,-2.81431 -3.9573,-6.44416 -5.0012,-10.08166 -1.6003,-5.57647 -2.4174,-11.34821 -3.8601,-16.96754 -1.4426,-5.61934 -3.589,-11.20913 -7.4295,-15.55753 -4.3897,-4.97023 -10.8758,-7.98889 -17.5001,-8.29194 -7.1615,-0.32763 -14.1144,2.35153 -20.5455,5.51934 -5.9941,2.95255 -11.768,6.37282 -17.9514,8.90501 -3.3525,1.37289 -6.8732,2.48954 -10.4948,2.57928 -2.6915,0.0667 -5.4061,-0.44757 -7.8486,-1.58007 -2.4426,-1.1325 -4.6052,-2.88987 -6.1378,-5.10335 -2.3059,-3.33029 -3.1009,-7.49311 -5.1981,-10.95862 -2.1812,-3.60435 -5.8088,-6.33476 -9.9097,-7.30021 -4.1008,-0.96545 -8.6217,-0.1141 -12.012,2.38689 -1.7758,1.30999 -3.226,3.02711 -5.0351,4.2907 -0.9046,0.63179 -1.9041,1.14852 -2.9801,1.39231 -1.0761,0.24379 -2.235,0.20137 -3.2454,-0.24188 -1.325,-0.58128 -2.2776,-1.78499 -2.9724,-3.05418 -0.6948,-1.26918 -1.1872,-2.64326 -1.9147,-3.89396 -1.0191,-1.75184 -2.4921,-3.23016 -4.2148,-4.29782 -1.7226,-1.06766 -3.6903,-1.72693 -5.7033,-1.96217 -4.026,-0.47047 -8.1602,0.77746 -11.4851,3.09578 -1.8334,1.27835 -3.4413,2.868 -5.3321,4.05981 -0.9454,0.5959 -1.9638,1.09085 -3.0476,1.36329 -1.0838,0.27244 -2.2375,0.31573 -3.316,0.0229 -1.7118,-0.46487 -3.1082,-1.73765 -4.1169,-3.19674 -1.0088,-1.45909 -1.6866,-3.1152 -2.4362,-4.7229 -4.8255,-10.35008 -12.7283,-18.88418 -20.1988,-27.52141 -1.0683,-1.23516 -2.1581,-2.49957 -3.5702,-3.31986 -1.1582,-0.67278 -2.477,-1.01248 -3.7884,-1.28487 -1.3114,-0.27239 -2.6421,-0.48724 -3.9026,-0.94025 -1.7964,-0.64563 -3.3842,-1.75006 -4.9853,-2.78958 -1.601,-1.03951 -3.2772,-2.04162 -5.1439,-2.44078 -2.0804,-0.44485 -4.2811,-0.1 -6.2417,0.72589 -1.9606,0.82585 -3.6987,2.11242 -5.2577,3.56003 -1.55,1.43922 -2.9404,3.04576 -4.5265,4.44511 -1.586,1.39936 -3.4164,2.6073 -5.4853,3.0471 -1.7504,0.37209 -3.5777,0.17394 -5.3187,-0.23981 -1.7409,-0.41376 -3.4239,-1.03857 -5.1437,-1.53296 -1.7198,-0.49439 -3.5045,-0.86033 -5.2896,-0.73574 -1.7851,0.12459 -3.5845,0.78399 -4.8112,2.08681 -0.7991,0.84862 -1.3187,1.92277 -1.7162,3.0185 -0.3976,1.09572 -0.685,2.22921 -1.0911,3.3218 -0.8632,2.32258 -2.2621,4.46365 -2.7254,6.89776 -0.4217,2.2155 -0.03,4.51469 0.6545,6.66354 0.6847,2.14885 1.6567,4.19404 2.4384,6.30951 0.9528,2.57858 1.6247,5.28455 1.6967,8.0326 0.093,3.56039 -0.8188,7.07106 -1.9406,10.45139 -1.1219,3.38032 -2.463,6.69739 -3.2759,10.16499 -1.3971,5.95922 -1.1909,12.18365 -0.4721,18.26209 1.2876,10.88793 4.2657,21.72592 10.0427,31.04429 5.7769,9.31837 14.5382,17.03298 25.0192,20.25069 4.0295,1.23706 8.2287,1.80012 12.3919,2.45925 6.3464,1.00478 12.8077,2.29981 18.3079,5.6217 7.2619,4.38592 12.1429,11.92956 15.1425,19.86515 1.3,3.43919 2.292,6.98516 3.3759,10.49844 0.4035,1.30802 0.8242,2.62203 1.4879,3.81926 0.6636,1.19723 1.5929,2.28325 2.8049,2.91956 0.8615,0.4523 1.8335,0.66164 2.8035,0.73757 0.97,0.0759 1.9449,0.0233 2.9169,-0.0211 5.8845,-0.26888 11.7779,-0.2346 17.6685,-0.25277 5.9117,-0.0182 11.8323,-0.089 17.7257,0.3751 4.439,0.3496 8.8777,1.00812 13.1109,2.38892 4.2333,1.38081 8.2686,3.50815 11.5194,6.55109 5.1493,4.82003 7.9948,11.55159 10.5779,18.11479 1.0239,2.60158 2.0353,5.22307 3.4441,7.63803 1.4087,2.41497 3.2473,4.63682 5.6236,6.10982 3.3301,2.0642 7.4245,2.4938 11.3394,2.3405 5.7401,-0.22477 11.3827,-1.58181 17.115,-1.95632 4.7183,-0.30826 9.6958,0.12311 13.6957,2.6446 1.1189,0.70535 2.1379,1.56031 3.2591,2.26205 1.1212,0.70175 2.3846,1.2563 3.7073,1.26353 1.5453,0.008 3.0127,-0.73569 4.2031,-1.72107 1.1905,-0.98538 2.1553,-2.20914 3.1811,-3.36491 8.1167,-9.1451 20.1162,-14.0184 32.1424,-16.22869 3.3094,-0.60823 6.6526,-1.03888 9.9361,-1.77426 0.8089,-0.18116 1.628,-0.38651 2.337,-0.81594 0.3545,-0.21471 0.6782,-0.48511 0.9306,-0.81379 0.2525,-0.32868 0.4322,-0.71713 0.4919,-1.12728 0.075,-0.51637 -0.043,-1.05137 -0.2883,-1.51214 -0.2449,-0.46076 -0.6113,-0.85013 -1.0285,-1.16354 -0.8344,-0.62683 -1.8505,-0.94948 -2.8296,-1.31086 -4.4831,-1.65476 -8.6085,-4.37251 -11.6783,-8.03483 -2.1341,-2.54599 -3.7444,-5.51566 -6.0362,-7.92071 -3.9755,-4.172 -9.6508,-6.28219 -15.2755,-7.53631 -2.9985,-0.66855 -6.0424,-1.13305 -9.0165,-1.90256 -2.9742,-0.76952 -5.9087,-1.86367 -8.3967,-3.66575 -3.1873,-2.30862 -5.491,-5.66273 -8.6359,-8.0288 -4.3578,-3.27857 -9.9819,-4.41432 -14.5701,-7.36185 -3.4159,-2.19445 -6.1632,-5.3545 -8.1099,-8.91746 -1.9466,-3.56297 -3.1123,-7.52107 -3.689,-11.53997 -0.702,-4.89204 -0.5405,-9.92031 0.6176,-14.72486 0.6017,-2.49619 1.4676,-4.92349 2.0474,-7.42485 0.5798,-2.50136 0.8676,-5.12732 0.2973,-7.63087 -0.5385,-2.36393 -1.8331,-4.5237 -3.5365,-6.24904 -1.7033,-1.72533 -3.8038,-3.02932 -6.0387,-3.96925 -4.4111,-1.85522 -9.2785,-2.30606 -13.8424,-3.74503 -7.2072,-2.27236 -13.4515,-6.93609 -20.582,-9.43874 -5.9289,-2.08094 -12.3888,-2.60222 -18.5865,-1.56697 -5.7669,0.96329 -11.2203,3.2251 -16.7607,5.09273 -8.8284,2.97596 -18.2863,4.98403 -27.447,3.28765 -5.4441,-1.00813 -10.6077,-3.29488 -16.0902,-4.06697 -8.3798,-1.1801 -17.1896,1.41774 -23.6901,6.83591 -2.2457,1.87176 -4.2176,4.05019 -6.4229,5.9693 -2.2053,1.91912 -4.718,3.60794 -7.5726,4.23849 -2.7489,0.6072 -5.6064,0.1944 -8.3988,-0.16305 -2.7924,-0.35745 -5.6865,-0.6494 -8.3761,0.18205 -2.372,0.73328 -4.4097,2.296 -6.1403,4.07623 -1.7306,1.78024 -3.2,3.79404 -4.8112,5.68301 -7.1677,8.40333 -17.4166,14.30814 -28.3981,15.49065 -3.3078,0.35619 -6.6927,0.28857 -9.9086,-0.56376 -6.2844,-1.66563 -11.3898,-6.13649 -16.1537,-10.56069 -3.3548,-3.11553 -6.6905,-6.29721 -10.5359,-8.7819 -3.8454,-2.48469 -8.2864,-4.25797 -12.8646,-4.22805 -4.3207,0.0282 -8.5067,1.64513 -12.8265,1.73485 -3.8241,0.0794 -7.6721,-1.08608 -10.7786,-3.31752 -3.1065,-2.23145 -5.4472,-5.52285 -6.4843,-9.20445 -1.2126,-4.30457 -0.6673,-8.97806 -2.0501,-13.231 -0.4555,-1.40077 -1.123,-2.74482 -2.0685,-3.87425 -0.9455,-1.12943 -2.1792,-2.03786 -3.5827,-2.48486 -1.6469,-0.5245 -3.4286,-0.39641 -5.1354,-0.12434 -1.7068,0.27207 -3.4023,0.68346 -5.1304,0.71048 -3.3585,0.0525 -6.5487,-1.33854 -9.6384,-2.65622 -3.0897,-1.31768 -6.3443,-2.61219 -9.6932,-2.35229 -3.1837,0.24709 -6.1114,1.88016 -9.2737,2.3237 -2.2458,0.31499 -4.5258,0.0194 -6.7825,-0.2041 -2.2568,-0.22352 -4.5727,-0.37015 -6.7599,0.229 -1.8236,0.49954 -3.4704,1.49538 -5.0225,2.57523 -1.552,1.07985 -3.0414,2.25858 -4.6868,3.19014 -3.0601,1.73256 -6.595,2.55595 -10.1114,2.58708 -3.5164,0.0311 -7.0156,-0.7117 -10.3071,-1.94949 -4.5837,-1.72376 -8.7478,-4.37821 -12.9158,-6.94921 -3.1233,-1.92658 -6.2959,-3.82941 -9.7528,-5.06077 -3.3818,-1.20462 -6.9581,-1.73922 -10.4987,-2.33249 -16.6941,-2.79729 -33.3207,-7.10689 -48.2573,-15.07037 -5.1448,-2.74299 -10.092,-5.91923 -15.5441,-7.98507 -2.7261,-1.03291 -5.5746,-1.78168 -8.4805,-2.01458 -2.9058,-0.23291 -5.874,0.0604 -8.6146,1.05408 -4.4451,1.61167 -8.0734,4.95736 -12.4505,6.74572 -3.6282,1.48239 -7.8011,1.81514 -11.483,0.47163 -1.8,-0.65681 -3.436,-1.68567 -5.0763,-2.67614 -1.6402,-0.99047 -3.322,-1.95952 -5.1667,-2.47764 -3.4264,-0.96234 -7.1217,-0.29469 -10.602,-1.03868 -3.8476,-0.8225 -7.1756,-3.31115 -11.0151,-4.17035 -4.267,-0.95487 -8.6795,0.18695 -13.0131,0.76978 -6.4943,0.87343 -13.0872,0.48089 -19.6199,-0.0313 -6.4625,-0.50668 -12.9293,-1.13087 -19.2871,-2.39522 -4.6776,-0.93021 -9.46,-2.21089 -14.1472,-1.33077 -3.2001,0.60088 -6.1652,2.18592 -9.3873,2.65464 -4.2962,0.62497 -8.588,-0.77869 -12.824,-1.72944 -5.8532,-1.31373 -11.8675,-1.7768 -17.8649,-1.90848 -5.5151,-0.12109 -11.0576,0.0371 -16.4957,0.96363 -7.9224,1.34985 -15.469,4.29977 -23.2,6.49498 -4.8717,1.38333 -9.8735,2.47454 -14.9378,2.49834 -5.0643,0.0238 -10.2258,-1.07554 -14.4969,-3.7968 -2.6676,-1.6996 -4.9264,-3.9832 -7.6037,-5.66744 -5.5708,-3.5045 -12.4657,-4.13045 -19.0454,-3.98051 -5.6926,0.12972 -11.4539,0.7625 -17.0359,-0.36179 -2.5379,-0.51117 -5.0379,-1.40181 -7.1246,-2.934 -2.0868,-1.5322 -3.7353,-3.75373 -4.2471,-6.29149 -0.3909,-1.93826 -0.1032,-3.98952 0.7024,-5.79523 0.8057,-1.8057 2.1144,-3.3682 3.6823,-4.57294 2.235,-1.71732 4.9383,-2.69858 7.6235,-3.5553 2.6852,-0.85672 5.4275,-1.62603 7.8889,-2.99935 4.5114,-2.51715 7.7596,-6.93436 9.6181,-11.75462 1.2417,-3.22045 1.919,-6.64334 3.2661,-9.82112 2.2098,-5.21272 6.1561,-9.55973 10.7167,-12.91475 9.4727,-6.96851 21.4139,-9.83088 31.1613,-16.40955 7.6465,-5.16073 13.6383,-12.40409 19.0466,-19.87754 1.3874,-1.9172 2.7523,-3.8706 3.7354,-6.02327 0.9832,-2.15266 1.5735,-4.53407 1.3336,-6.88843 -0.2419,-2.37408 -1.3713,-4.67805 -3.2138,-6.19457 -0.9213,-0.75827 -2.0099,-1.31604 -3.1691,-1.5988 -1.1592,-0.28275 -2.3878,-0.28811 -3.544,0.007 -1.8747,0.4778 -3.4935,1.72583 -4.6712,3.2607 -1.1778,1.53486 -1.9469,3.34623 -2.5247,5.19261 -0.9684,3.09463 -1.4446,6.37034 -2.9024,9.26681 -1.1327,2.25062 -2.833,4.19663 -4.8358,5.72547 -2.0027,1.52883 -4.3031,2.64738 -6.7064,3.40395 -5.6824,1.78885 -11.7731,1.5508 -17.6948,2.20181 -3.3917,0.37287 -6.7455,1.04115 -10.1364,1.42031 -3.391,0.37917 -6.8596,0.46355 -10.1801,-0.32177 -6.0907,-1.44049 -11.0925,-5.62275 -16.5355,-8.71226 -2.3657,-1.34278 -4.8729,-2.50037 -7.5444,-3.013 -2.6714,-0.51262 -5.5334,-0.34177 -7.9697,0.86826 -1.909,0.94815 -3.4619,2.47301 -4.935,4.01352 -1.4731,1.54052 -2.923,3.14043 -4.712,4.29917 -2.3494,1.52167 -5.1353,2.18914 -7.8641,2.81252 -2.7288,0.62337 -5.5177,1.25016 -7.9077,2.70715 -1.8827,1.14774 -3.4399,2.7693 -4.7577,4.53716 -1.3178,1.76786 -2.4122,3.68945 -3.529,5.59067 -2.6513,4.51332 -5.4684,8.98256 -7.2211,13.91484 -0.9499,2.67322 -1.5747,5.45033 -2.4367,8.1532 -0.8619,2.70287 -1.9869,5.37321 -3.7967,7.55793 -1.5807,1.90819 -3.705,3.41612 -6.1114,4.00692 -1.2032,0.29539 -2.4666,0.35901 -3.6877,0.14956 -1.2212,-0.20945 -2.3984,-0.69462 -3.391,-1.43599 -1.3322,-0.99497 -2.2897,-2.40685 -3.1123,-3.85186 -0.8226,-1.44501 -1.5405,-2.95713 -2.5199,-4.3008 -1.8,-2.46948 -4.3946,-4.24687 -7.0895,-5.68769 -2.6949,-1.44082 -5.5389,-2.59457 -8.1947,-4.10615 -2.879,-1.6386 -5.5052,-3.67931 -8.2415,-5.54649 -2.7363,-1.86718 -5.6336,-3.58391 -8.827,-4.46474 -4.2764,-1.17953 -8.8652,-0.78669 -13.1402,0.39779 -4.275,1.18448 -8.2942,3.13005 -12.2785,5.08045 -7.7594,3.7984 -15.53022,7.67115 -23.77693,10.24553 -5.58456,1.74334 -11.42381,2.88348 -17.26647,2.58367 -5.41562,-0.27789 -10.70567,-1.78233 -16.11521,-2.16055 -3.26109,-0.228 -6.5921,-0.0352 -9.6918,1.00327 -3.09971,1.03852 -5.96292,2.9763 -7.73271,5.72485 -0.66935,1.03952 -1.17377,2.17508 -1.77515,3.25534 -0.60138,1.08027 -1.32004,2.12672 -2.31362,2.86254 -0.8786,0.65067 -1.94088,1.02984 -3.02392,1.17928 -1.08304,0.14944 -2.18819,0.0761 -3.26408,-0.11822 -2.15178,-0.38871 -4.18676,-1.2518 -6.30161,-1.80738 -4.26273,-1.11983 -8.79521,-0.96408 -13.09718,-0.006 -3.46063,0.77071 -6.92675,2.06052 -10.44637,1.63366 -3.06257,-0.37143 -5.87923,-2.02445 -8.95634,-2.2452 -2.33971,-0.16785 -4.66698,0.51072 -6.81068,1.46307 -2.14369,0.95236 -4.15407,2.17936 -6.26722,3.1977 -6.22731,3.00098 -13.21444,4.1316 -19.49022,7.02984 -3.37944,1.56067 -6.50524,3.61238 -9.76642,5.4071 -3.26118,1.79473 -6.73088,3.35411 -10.42635,3.80108 -3.9292,0.47524 -8.00236,-0.31998 -11.81991,0.72442 -2.31242,0.63263 -4.38936,1.90585 -6.42688,3.16918 -2.03753,1.26333 -4.1052,2.54788 -6.4101,3.2074 -2.52298,0.72192 -5.22489,0.65504 -7.79563,0.12786 -2.57074,-0.52717 -5.02848,-1.5004 -7.42198,-2.57639 -5.0107,-2.25253 -9.91134,-5.00945 -15.33561,-5.88026 -4.73006,-0.75937 -9.58747,-0.0328 -14.34502,-0.59471 -4.51909,-0.53378 -8.89693,-2.22387 -13.44742,-2.21186 -3.72145,0.01 -7.33747,1.15943 -11.02639,1.65048 -4.49993,0.59901 -9.06469,0.21347 -13.60415,0.25084 -4.53947,0.0374 -9.22204,0.54402 -13.1925,2.74484 -2.42154,1.34225 -4.46761,3.25387 -6.57233,5.05267 -2.10471,1.7988 -4.34894,3.53321 -6.97386,4.41374 -3.5041,1.17545 -7.31386,0.71902 -10.99529,0.3912 -1.42164,-0.12659 -2.85245,-0.23199 -4.27476,-0.11325 -1.42231,0.11874 -2.84562,0.47109 -4.06985,1.20481 -1.68505,1.00991 -2.89703,2.69436 -3.59893,4.52921 -0.7019,1.83484 -0.9282,3.81969 -0.9627,5.7839 -0.0468,2.66426 0.24783,5.32653 0.18199,7.99039 -0.0658,2.66386 -0.52305,5.39754 -1.93565,7.65698 -1.15049,1.84019 -2.86196,3.25423 -4.60737,4.54397 -1.74541,1.28975 -3.56972,2.50193 -5.06865,4.07136 -1.75282,1.83527 -3.00498,4.11103 -3.83497,6.5093 -0.82999,2.39827 -1.25027,4.92195 -1.47357,7.44994 -0.168,1.90189 -0.2249,3.83356 0.1469,5.7063 0.37179,1.87275 1.20227,3.69687 2.59568,5.00217 1.3022,1.21986 3.0324,1.9242 4.79818,2.18076 1.76577,0.25656 3.57115,0.0875 5.31897,-0.27152 4.4987,-0.92415 8.6575,-3.08268 12.49137,-5.61128 3.83388,-2.5286 7.39834,-5.4422 11.15761,-8.08044 4.05347,-2.84471 8.37617,-5.38747 13.08996,-6.90509 4.7138,-1.51762 9.86269,-1.9652 14.63125,-0.62958 3.4393,0.96331 6.57892,2.81822 9.3722,5.04405 2.79329,2.22584 5.26512,4.82375 7.69167,7.44455 3.14238,3.39394 6.30289,6.96966 7.80819,11.34316 1.22792,3.5676 1.25833,7.51558 0.21367,11.14107 -1.04466,3.6255 -3.14381,6.92211 -5.89598,9.50302 -4.95005,4.64203 -11.66176,6.81044 -17.51189,10.24956 -4.34326,2.55328 -8.21838,5.81557 -12.27421,8.80445 -4.05584,2.98887 -8.39123,5.75222 -13.24549,7.10105 -4.00797,1.11367 -8.23358,1.22448 -12.27192,2.2224 -2.51919,0.62252 -4.96727,1.59739 -7.12394,3.04053 -2.15666,1.44313 -4.01618,3.36741 -5.22095,5.66575 -1.36285,2.5999 -1.84768,5.57675 -1.96202,8.50997 -0.15768,4.04519 0.34296,8.17588 -0.6858,12.09124 -1.19209,4.53698 -4.30012,8.28395 -7.2802,11.90671 -5.82262,7.07831 -11.5048,14.3295 -15.99745,22.31833 -3.75662,6.68003 -6.69096,13.99623 -7.12882,21.64759 -0.15097,2.63807 0.001,5.31611 0.7328,7.85515 0.73178,2.53904 2.06856,4.93991 4.04035,6.69896 2.33501,2.08308 5.42215,3.172 7.76399,5.2474 2.04691,1.81402 3.41993,4.31205 4.14391,6.94954 0.72399,2.63749 0.82688,5.41494 0.60267,8.14079 -0.51357,6.24381 -2.71335,12.25564 -5.65281,17.78813 -3.04889,5.73847 -6.96898,11.10306 -12.06614,15.13353 -5.09717,4.03047 -11.44662,6.65867 -17.94459,6.613 -5.1091,-0.0359 -10.06654,-1.68446 -15.1479,-2.2173 -4.95161,-0.51923 -9.96927,0.0301 -14.82927,1.11105 -3.5353,0.7863 -7.04694,1.85831 -10.66743,1.95153 -5.80924,0.14958 -11.41132,-2.22726 -17.21515,-2.51915 -5.08255,-0.25561 -10.2762,1.16895 -14.36999,4.19195 -2.26591,1.67323 -4.16048,3.78745 -6.11434,5.81637 -1.95385,2.02892 -4.01852,4.01309 -6.50473,5.33703 -3.29143,1.75273 -7.1027,2.23659 -10.56961,3.60993 -2.38552,0.94497 -4.58208,2.30059 -6.85815,3.48515 -2.27607,1.18456 -4.6931,2.21535 -7.25017,2.42767 -1.34032,0.11129 -2.68744,-0.005 -4.03136,-0.0572 -1.34392,-0.0521 -2.70988,-0.037 -4.00435,0.32797 -1.23544,0.34828 -2.37411,1.0116 -3.3249,1.87393 -0.95079,0.86232 -1.71607,1.92048 -2.28838,3.06942 -1.29891,2.60762 -1.59682,5.62069 -2.86856,8.24167 -0.88921,1.8326 -2.27905,3.45779 -4.07572,4.41753 -0.89833,0.47986 -1.89079,0.78919 -2.90571,0.87408 -1.01492,0.0849 -2.05162,-0.0571 -2.99527,-0.44027 -1.45374,-0.59026 -2.64708,-1.74264 -3.40862,-3.11444 -0.76154,-1.3718 -1.10713,-2.95192 -1.1271,-4.5208 -0.0345,-2.71038 0.86668,-5.33654 1.79674,-7.88258 0.93006,-2.54605 1.91135,-5.12854 2.04798,-7.83569 0.0885,-1.75326 -0.19464,-3.54894 -1.0013,-5.10812 -0.80666,-1.55918 -2.16544,-2.86374 -3.82773,-3.42814 -1.44422,-0.49036 -3.04724,-0.40448 -4.49567,0.0733 -1.44844,0.47776 -2.75219,1.32926 -3.90045,2.33311 -1.69622,1.48289 -3.06837,3.29236 -4.56362,4.9777 -1.49525,1.68534 -3.17147,3.28832 -5.23988,4.18154 -2.37349,1.02497 -5.08377,1.02704 -7.61992,0.52513 -2.53616,-0.50192 -4.94857,-1.47935 -7.37433,-2.3736 -8.37,-3.08557 -17.06359,-5.22702 -25.82793,-6.8895 -6.85836,-1.30094 -14.04389,-2.42118 -19.73236,-6.46727 -4.05942,-2.88738 -7.09512,-7.1849 -8.4596,-11.97594 -1.36448,-4.79103 -1.04849,-10.04312 0.88056,-14.636"
       id="path507"
       inkscape:path-effect="#path-effect511"
       inkscape:original-d="m 4265.2474,1569.0641 c -2525.249,-1189.04684 -12.2726,-2.0345 -18.4105,-3.0533 -6.1378,-1.0188 -12.0855,-8.0591 -18.1298,-12.0902 -6.0443,-4.0311 -8.3108,-8.6781 -12.4676,-13.0186 -4.1569,-4.3406 -18.2866,-4.8719 -27.4314,-7.3093 -9.1448,-2.4375 -18.8783,-2.2681 -28.319,-3.4036 -9.4406,-1.1356 -4.8989,-1.5807 -7.3499,-2.3725 -2.451,-0.7918 -8.7976,2.0032 -13.1979,3.0033 -4.4003,1.0001 -11.3986,2.9321 -17.0993,4.3967 -5.7008,1.4645 -8.5105,-0.8921 -12.7673,-1.3397 -4.2567,-0.4476 -8.5193,4.4787 -12.7804,6.7165 -4.2611,2.2378 -8.7397,2.2631 -13.111,3.3932 -4.3714,1.1301 -7.6225,-0.4562 -11.4352,-0.6858 -3.8128,-0.2296 -8.0081,4.0588 -12.0137,6.0867 -4.0055,2.0279 -17.9223,0.8806 -26.8849,1.3194 -8.9627,0.4388 -3.8847,-5.3888 -5.8285,-8.0847 -1.9438,-2.6959 -6.0462,-6.5889 -9.0709,-9.8849 -3.0246,-3.2959 1.4029,-6.2359 2.1028,-9.3554 0.6999,-3.1195 -1.3108,-7.2182 -1.9677,-10.8288 -0.6569,-3.6106 -2.7358,-4.4173 -4.1052,-6.6275 -1.3694,-2.2102 0.2323,-3.8976 0.3469,-5.8479 0.1147,-1.9502 4.5497,-4.97 6.8231,-7.4565 2.2733,-2.4865 -4.5255,1.3331 -6.7898,1.9981 -2.2642,0.665 0.5515,8.0948 0.8258,12.1408 0.2742,4.0459 3.6725,7.6857 5.5072,11.5271 1.8348,3.8414 -3.139,8.4768 -4.71,12.7138 -1.5711,4.2369 -5.9908,3.1791 -8.9877,4.7672 -2.9969,1.588 -9.7442,0.1934 -14.6177,0.2886 -4.8736,0.095 -10.9081,-7.1187 -16.3636,-10.6795 -5.4555,-3.5608 -4.1385,-5.5523 -6.2093,-8.33 -2.0708,-2.7777 -5.9019,-7.754 -8.8544,-11.6325 -2.9525,-3.8785 -9.1647,-7.6947 -13.7486,-11.5435 -4.5839,-3.8489 -6.9621,-0.3689 -10.4446,-0.5548 -3.4826,-0.1859 -7.9251,2.8972 -11.8892,4.3442 -3.964,1.4471 -8.6816,-1.8756 -13.0239,-2.8149 -4.3423,-0.9393 -3.3284,-7.1884 -4.994,-10.7841 -1.6657,-3.5958 1.5579,-7.6726 2.3354,-11.5104 0.7774,-3.8378 -5.2435,-12.2773 -7.8668,-18.4175 -2.6232,-6.1401 -13.2204,-7.9675 -19.8321,-11.9527 -6.6117,-3.9853 -9.8724,-8.7169 -14.8101,-13.0768 -4.9377,-4.3599 -2.064,-3.5582 -3.0975,-5.3387 -1.0335,-1.7806 -1.0569,-5.8265 -1.5868,-8.7412 -0.5299,-2.9147 -1.4304,-8.2083 -2.1471,-12.3139 -0.7167,-4.1057 -0.5004,-7.0974 -0.7522,-10.6475 -0.2517,-3.5502 -7.5711,-10.6317 -11.3582,-15.9491 -3.7871,-5.3173 -5.3729,0.627 -8.0608,0.939 -2.6879,0.312 -17.8155,5.4849 -26.7247,8.2258 -8.9092,2.741 -8.9363,1.7555 -13.4059,2.6318 -4.4696,0.8762 -15.3237,4.5468 -22.9871,6.8187 -7.6633,2.272 -11.5426,-1.9867 -17.3154,-2.9815 -5.7728,-0.9949 -9.2355,1.8383 -13.8547,2.756 -4.6193,0.9176 -11.5365,-3.1849 -17.3063,-4.7788 -5.7697,-1.5939 -8.5621,-5.5881 -12.8447,-8.3836 -4.2825,-2.7955 -10.4222,-2.1381 -15.6348,-3.2086 -5.2126,-1.0706 -8.325,-3.2997 -12.489,-4.951 -4.164,-1.6513 -8.234,-4.6008 -12.3525,-6.9027 -4.1185,-2.3019 -15.2154,-3.7883 -22.8246,-5.6839 -7.6092,-1.8957 -21.0024,0.5355 -31.5052,0.8018 -10.5027,0.2663 -13.0604,-5.4569 -19.5921,-8.1869 -6.5317,-2.73 -14.3456,-5.4817 -21.5199,-8.2241 -7.1742,-2.7424 -7.839,-10.2557 -11.7601,-15.385 -3.921,-5.1294 -12.3616,-9.2277 -18.5439,-13.8431 -6.1823,-4.6153 -13.2483,-11.7623 -19.8739,-17.645 -6.6256,-5.8827 -4.1235,-4.9139 -6.1868,-7.3723 -2.0632,-2.4585 -9.801,-8.1828 -14.703,-12.2757 -4.902,-4.0928 -2.9903,-9.2734 -4.4869,-13.9117 -1.4966,-4.6382 -10.0876,-10.1867 -15.133,-15.2815 -5.0453,-5.0948 -5.8634,-10.3265 -8.7967,-15.4912 -2.9332,-5.1648 -12.7617,-8.3106 -19.1441,-12.4674 -6.3824,-4.1567 -13.126,0.8129 -19.6905,1.2179 -6.5644,0.4049 -9.6187,-1.7216 -14.4296,-2.5839 -4.8109,-0.8623 -12.474,7.6455 -18.7126,11.4668 -6.2385,3.8212 -5.3216,10.6414 -7.9839,15.9606 -2.6623,5.3193 1.1944,6.257 1.7901,9.384 0.5957,3.127 -1.7365,6.2972 -2.6063,9.4443 -0.8697,3.1471 0.4114,4.6889 0.6156,7.0319 0.2042,2.343 0.5118,8.8853 0.7661,13.3264 0.2544,4.4412 -5.2667,4.6944 -7.9016,7.0401 -2.6349,2.3457 -5.1709,-3.2081 -7.7578,-4.8136 -2.5869,-1.6056 -3.4855,-3.8575 -5.2298,-5.7877 -1.7442,-1.9303 -1.8751,-4.6505 -2.8142,-6.9773 -0.939,-2.3267 -4.0277,-1.8596 -6.0431,-2.7908 -2.0154,-0.9313 -1.5465,-3.9518 -2.3213,-5.9292 -0.7747,-1.9774 -2.6025,-3.1689 -3.9053,-4.7549 -1.3028,-1.5859 -5.7425,4.54 -8.6152,6.8084 -2.8727,2.2685 -1.4432,6.8084 -2.1664,10.211 -0.7231,3.4027 -4.2868,5.672 -6.4317,8.5065 -2.1449,2.8345 -7.334,1.2769 -11.0026,1.9138 -3.6685,0.6369 -14.51,0.8844 -21.7665,1.3251 -7.2564,0.4407 -14.7341,-9.8998 -22.1027,-14.8512 -7.3686,-4.9514 -3.9042,-4.7939 -5.8578,-7.1923 -1.9536,-2.3984 -9.5401,-5.5252 -14.3116,-8.2893 -4.7716,-2.7641 -8.1673,0.8987 -12.2524,1.3466 -4.0852,0.4478 -17.2108,-10.4181 -25.8177,-15.6287 -8.6068,-5.2105 -5.6607,-6.5948 -8.4925,-9.8937 -2.8319,-3.2989 -1.5028,-6.4923 -2.2556,-9.74 -0.7529,-3.2476 -1.3672,-5.3275 -2.0522,-7.9928 -0.6851,-2.6652 1.8642,-5.1829 2.7948,-7.7758 0.9306,-2.5929 -6.5071,-4.3 -9.7621,-6.4515 -3.255,-2.1515 -7.3225,2.1234 -10.9852,3.1836 -3.6628,1.0602 -6.8456,4.9418 -10.2698,7.4112 -3.4243,2.4695 -9.788,-2.5519 -14.6835,-3.8294 -4.8955,-1.2775 -9.6276,-3.376 -14.4429,-5.0654 -4.8153,-1.6895 -6.8779,0.1364 -10.3183,0.2031 -3.4404,0.067 -0.5165,-6.4764 -0.7762,-9.7161 -0.2598,-3.2396 3.4097,-7.0533 5.1131,-10.5814 1.7033,-3.5282 4.5499,-10.5655 6.8233,-15.8498 2.2735,-5.2842 -5.9186,-10.6233 -8.8794,-15.9364 -2.9608,-5.3132 -8.4801,-7.11 -12.7217,-10.6665 -4.2415,-3.5565 1.7667,-7.6673 2.6486,-11.5025 0.8819,-3.8352 3.9117,-8.0765 5.8661,-12.1163 1.9543,-4.0397 -9.5326,-20.5118 -14.3004,-30.7693 -4.7679,-10.2574 0.4938,-8.9593 0.7392,-13.4405 0.2455,-4.4812 4.5975,-8.284 6.8948,-12.4275 2.2973,-4.1435 1.783,-7.5282 2.6729,-11.2938 0.89,-3.7655 -4.0083,-4.7249 -6.014,-7.0889 -2.0056,-2.364 -17.7569,-6.6738 -26.6369,-10.0122 -8.88,-3.3384 -3.6209,-4.9491 -5.4329,-7.4252 -1.8119,-2.476 -8.2088,-3.8981 -12.3147,-5.8486 -4.1059,-1.9506 -2.7296,-6.3775 -4.096,-9.5677 -1.3663,-3.1903 -7.9857,-21.69307 -11.9801,-32.54109 -3.9944,-10.84802 -3.76,-8.45406 -5.6415,-12.68259 -1.8815,-4.22853 -8.2309,2.93799 -12.3479,4.40549 -4.1169,1.4675 -4.346,2.51985 -6.5205,3.77828 -2.1746,1.25842 -3.8425,-5.56952 -5.7652,-8.35578 -1.9227,-2.78626 -0.4919,-7.76894 -0.7393,-11.65491 -0.2474,-3.88597 -7.6322,-4.02814 -11.4498,-6.04371 -3.8176,-2.01557 -17.173,-1.38016 -25.761,-2.07173 -8.588,-0.69158 -7.6517,-4.23338 -11.479,-6.35157 -3.8274,-2.11819 -1.241,-5.60306 -1.8629,-8.40609 -0.622,-2.80303 -4.9039,-6.41806 -7.3574,-9.62858 -2.4534,-3.21053 -10.1888,-2.59967 -15.2847,-3.90101 -5.0959,-1.30134 -9.7208,-5.99406 -14.5827,-8.9926 -4.8619,-2.99853 -16.9942,-7.0217 -25.4928,-10.53405 -8.4985,-3.51235 -8.4542,0.22765 -12.6828,0.33997 -4.2286,0.11232 -7.3996,-4.08035 -11.101,-6.12203 -3.7013,-2.04168 -7.7981,-8.50537 -11.6987,-12.75955 -3.9005,-4.25419 -10.2427,0.23353 -15.3655,0.34879 -5.1228,0.11526 -6.652,-2.50074 -9.9795,-3.75261 -3.3274,-1.25187 -16.4467,-3.59445 -24.6715,-5.39318 -8.2249,-1.79873 -9.6777,-2.31631 -14.518,-3.47596 -4.8404,-1.15965 -16.3225,2.37157 -24.4852,3.55585 -8.1628,1.18429 -10.3459,-2.05256 -15.5203,-3.08034 -5.1744,-1.02778 -6.9162,-5.36585 -10.3757,-8.05027 -3.4596,-2.68443 -13.2168,-2.97571 -19.8267,-4.46507 -6.6099,-1.48935 -11.8955,-4.97509 -17.8448,-7.46413 -5.9493,-2.48905 -8.3392,-10.23104 -12.5103,-15.34806 -4.1712,-5.11702 -20.1763,-35.04987 -30.2659,-52.57631 -10.0896,-17.52644 -8.7116,-13.75714 -13.0689,-20.63721 -4.3572,-6.88007 -4.899,-3.49668 -7.3501,-5.24652 -2.451,-1.74983 -6.8196,3.86728 -10.2309,5.79942 -3.4113,1.93214 -6.644,5.00305 -9.9676,7.50307 -3.3235,2.50003 -7.9006,-0.65051 -11.8524,-0.97727 -3.9518,-0.32676 -7.242,-0.4029 -10.8645,-0.60585 -3.6226,-0.20295 -7.9369,-7.11296 -11.9068,-10.67093 -3.97,-3.55798 -13.084,-5.02656 -19.6275,-7.54134 -6.5434,-2.51478 -5.4661,-5.83747 -8.2006,-8.7577 -2.7346,-2.92023 -14.253,-5.14121 -21.381,-7.71331 -7.128,-2.57211 -6.3003,1.45531 -9.452,2.18147 -3.1517,0.72616 -3.8426,6.67015 -5.7654,10.00372 -1.9228,3.33357 0.4487,9.54352 0.6715,14.31379 0.2228,4.77026 0.8161,6.8808 1.2227,10.3197 0.4066,3.43891 -6.0636,6.93587 -9.097,10.4023 -3.0333,3.46643 -4.8128,4.00589 -7.2208,6.00734 -2.4079,2.00145 -13.2451,0.12521 -19.8692,0.18632 -6.6241,0.0611 -9.7504,-1.51182 -14.6271,-2.26923 -4.8768,-0.7574 -10.112,-5.56355 -15.1694,-8.34683 -5.0575,-2.78327 -17.7088,-5.93457 -26.5647,-8.90336 -8.8558,-2.96879 -9.2302,-5.04556 -13.8469,-7.56983 -4.6166,-2.52428 -2.6404,-4.67171 -3.9622,-7.00907 -1.3217,-2.33735 -8.0519,-3.45188 -12.0794,-5.17932 -4.0275,-1.72744 -15.7006,-0.96431 -23.5524,-1.44797 -7.8518,-0.48365 -6.1335,-0.79095 -9.2018,-1.18792 -3.0682,-0.39698 -5.9731,2.99801 -8.9612,4.49552 -2.9881,1.49751 -6.9169,0.92517 -10.3768,1.38626 -3.46,0.46108 -10.3917,-2.38609 -15.5891,-3.58064 -5.1973,-1.19454 -6.7288,3.42108 -10.0947,5.13013 -3.3659,1.70904 -7.4541,7.39023 -11.1827,11.08384 -3.7286,3.69362 0.5594,3.11605 0.8376,4.67257 0.2782,1.55653 -0.2974,6.53455 -0.4477,9.80033 -0.1502,3.26577 -4.8045,-1.2458 -7.2083,-1.8702 -2.4037,-0.6244 -9.196,2.82572 -13.7956,4.23708 -4.5995,1.41137 2.303,4.38956 3.4529,6.58283 1.15,2.19328 -0.6194,5.95103 -0.9306,8.92505 -0.3112,2.97402 -4.9233,1.10246 -7.3864,1.65219 -2.4632,0.54973 -8.5752,-2.65824 -12.8643,-3.98885 -4.2891,-1.33062 -8.5899,-1.10015 -12.8864,-1.65172 -4.2965,-0.55157 -8.5436,-7.78557 -12.8168,-11.67985 -4.2733,-3.89429 -4.801,-7.25009 -7.2029,-10.87664 -2.402,-3.62655 -5.6269,-2.89958 -8.4418,-4.35087 -2.8149,-1.45129 -12.9181,-5.09737 -19.3787,-7.64756 -6.4606,-2.55018 -5.1418,-15.46392 -7.7142,-23.19738 -2.5725,-7.73346 1.4143,-15.99839 2.1199,-23.99909 0.7057,-8.0007 -2.4077,-8.93193 -3.6131,-13.3994 -1.2054,-4.46746 -12.546,-4.13333 -18.8204,-6.2015 -6.2745,-2.06817 -10.1064,3.79269 -15.1611,5.68753 -5.0547,1.89485 -9.9916,0.90123 -14.9889,1.35034 -4.9973,0.44912 -5.3931,-1.36212 -8.0912,-2.04468 -2.6981,-0.68256 -0.8495,-3.92272 -1.2757,-5.88558 -0.4263,-1.96286 0.6979,-8.25214 1.0454,-12.37971 0.3475,-4.12757 -4.4283,-11.50734 -6.644,-17.26252 -2.2157,-5.75517 -3.4406,-9.58479 -5.1624,-14.37868 -1.7218,-4.7939 1.2147,-8.411 1.8206,-12.61799 0.6058,-4.207 1.9506,-20.42525 2.9244,-30.63937 0.9738,-10.21412 -6.7369,-11.44169 -10.1069,-17.16404 -3.37,-5.72234 -0.9201,-11.48084 -1.3817,-17.22276 -0.4615,-5.74193 5.1239,-6.89041 7.6843,-10.33712 2.5604,-3.4467 7.2326,-1.98477 10.8474,-2.97866 3.6148,-0.99389 2.6895,-2.69337 4.0327,-4.04155 1.3433,-1.34818 4.9836,-9.18412 7.4739,-13.77768 2.4903,-4.59356 -4.6465,-7.7959 -6.9712,-11.69535 -2.3247,-3.89944 -11.9709,-1.59923 -17.9578,-2.40035 -5.987,-0.80111 -8.3167,2.95588 -12.4765,4.43232 -4.1598,1.47644 -9.0588,-0.38925 -13.5897,-0.58538 -4.5309,-0.19612 -12.265,2.56409 -18.399,3.84464 -6.134,1.28055 -12.4969,2.04403 -18.7468,3.06454 -6.2499,1.02051 -10.756,-3.65312 -16.1355,-5.48118 -5.3795,-1.82806 -17.1167,-3.44786 -25.6765,-5.17329 -8.5598,-1.72543 -10.8313,-1.12775 -16.2485,-1.69313 -5.4172,-0.56537 -11.9716,-11.45254 -17.9589,-17.18031 -5.9873,-5.72777 -1.9386,-12.60009 -2.9094,-18.90164 -0.9708,-6.30155 -4.6983,-6.96089 -7.049,-10.44283 -2.3506,-3.48195 -8.3323,1.28513 -12.5,1.9262 -4.1677,0.64107 -9.2847,-3.28214 -13.9285,-4.92472 -4.6439,-1.64257 -3.3332,-6.72011 -5.0012,-10.08166 -1.6681,-3.36156 -7.5254,-21.68238 -11.2896,-32.52507 -3.7642,-10.84269 -11.6657,-5.52696 -17.5001,-8.29194 -5.8344,-2.76498 -13.696,3.68056 -20.5455,5.51934 -6.8495,1.83878 -11.9666,5.93767 -17.9514,8.90501 -5.9848,2.96733 -6.9955,1.72052 -10.4948,2.57928 -3.4992,0.85876 -9.3232,-4.45461 -13.9864,-6.68342 -4.6631,-2.2288 -3.4644,-7.30474 -5.1981,-10.95862 -1.7337,-3.65387 -14.6135,-3.27455 -21.9217,-4.91332 -7.3083,-1.63878 -7.506,3.62842 -11.2606,5.44113 -3.7545,1.81272 -3.257,-4.63109 -4.8871,-6.94814 -1.63,-2.31704 -14.2678,-2.10847 -21.4032,-3.16421 -7.1354,-1.05574 -7.7961,3.63164 -11.6957,5.44596 -3.8995,1.81432 -4.3677,-5.27876 -6.5531,-7.91964 -2.1854,-2.64088 -13.4649,-18.34661 -20.1988,-27.52141 -6.7339,-9.1748 -2.3791,-2.21224 -3.5702,-3.31986 -1.1911,-1.10762 -5.1263,-1.48242 -7.691,-2.22512 -2.5647,-0.74271 -6.7518,-3.48591 -10.1292,-5.23036 -3.3774,-1.74446 -7.6653,2.85828 -11.4994,4.28592 -3.8342,1.42765 -6.6736,4.99581 -10.0118,7.49221 -3.3383,2.4964 -13.7078,-0.28013 -20.5632,-0.4217 -6.8554,-0.14157 -1.8706,4.22786 -2.8073,6.3403 -0.9368,2.11243 -1.816,4.5995 -2.7254,6.89776 -0.9095,2.29825 2.063,8.6497 3.0929,12.97305 1.03,4.32335 1.1321,5.35607 1.6967,8.0326 0.5645,2.67653 -3.4767,13.74525 -5.2165,20.61638 -1.7399,6.87112 -0.3138,12.17573 -0.4721,18.26209 -0.1584,6.08637 23.3756,34.19766 35.0619,51.29498 11.6863,17.09733 8.2622,1.6405 12.3919,2.45925 4.1296,0.81874 12.2062,3.7488 18.3079,5.6217 6.1016,1.87291 10.096,13.24444 15.1425,19.86515 5.0466,6.62072 2.2516,6.99996 3.3759,10.49844 1.1243,3.49848 2.8629,4.49355 4.2928,6.73882 1.4299,2.24527 3.8146,0.47863 5.7204,0.71644 1.9058,0.23782 11.78,-0.16751 17.6685,-0.25277 5.8885,-0.0852 11.8181,0.25106 17.7257,0.3751 5.9075,0.12403 16.4212,5.96101 24.6303,8.94001 8.2091,2.97901 7.0529,12.07753 10.5779,18.11479 3.5249,6.03727 6.0461,9.16624 9.0677,13.74785 3.0216,4.58162 7.5606,1.56134 11.3394,2.3405 3.7788,0.77917 11.411,-1.30321 17.115,-1.95632 5.704,-0.65311 9.1315,1.76407 13.6957,2.6446 4.5643,0.88054 4.6453,2.35139 6.9664,3.52558 2.3212,1.17419 4.9238,-3.38965 7.3842,-5.08598 2.4603,-1.69632 21.4293,-10.81812 32.1424,-16.22869 10.7132,-5.41056 6.6251,-1.18184 9.9361,-1.77426 3.311,-0.59242 2.5073,-1.837 3.7595,-2.75701 1.2522,-0.92 -2.7633,-2.65669 -4.1464,-3.98654 -1.3831,-1.32985 -7.7845,-5.35555 -11.6783,-8.03483 -3.8938,-2.67928 -4.0232,-5.27947 -6.0362,-7.92071 -2.0131,-2.64123 -10.1827,-5.0232 -15.2755,-7.53631 -5.0928,-2.5131 -11.6078,-3.71121 -17.4132,-5.56831 -5.8054,-1.8571 -5.7562,-5.35153 -8.6359,-8.0288 -2.8796,-2.67726 -9.7124,-4.9069 -14.5701,-7.36185 -4.8577,-2.45496 -7.8649,-13.63729 -11.7989,-20.45743 -3.9339,-6.82015 0.4127,-9.81558 0.6176,-14.72486 0.2048,-4.90929 1.5641,-10.03615 2.3447,-15.05572 0.7806,-5.01958 -6.3824,-6.81119 -9.5752,-10.21829 -3.1927,-3.40709 -9.2273,-2.49569 -13.8424,-3.74503 -4.6152,-1.24935 -13.7204,-6.29149 -20.582,-9.43874 -6.8617,-3.14724 -12.39,-1.04364 -18.5865,-1.56697 -6.1965,-0.52332 -11.1728,3.39616 -16.7607,5.09273 -5.5879,1.69658 -18.297,2.19277 -27.447,3.28765 -9.15,1.09489 -10.7258,-2.71031 -16.0902,-4.06697 -5.3644,-1.35666 -15.7924,4.55827 -23.6901,6.83591 -7.8978,2.27763 -9.3293,6.80619 -13.9955,10.20779 -4.6661,3.4016 -11.1823,0.0137 -16.7749,0.019 -5.5927,0.005 -7.3,6.50716 -10.9515,9.75924 -3.6515,3.25207 -18.9311,10.3281 -28.3981,15.49065 -9.467,5.16255 -6.6047,-0.37484 -9.9086,-0.56376 -3.3038,-0.18892 -10.7682,-7.03946 -16.1537,-10.56069 -5.3856,-3.52123 -15.5994,-8.6723 -23.4005,-13.00995 -7.8012,-4.33765 -8.55,1.15757 -12.8265,1.73485 -4.2765,0.57728 -11.5076,-8.34698 -17.2629,-12.52197 -5.7552,-4.17498 -1.3657,-8.81967 -2.0501,-13.231 -0.6843,-4.41134 -3.7664,-4.23841 -5.6512,-6.35911 -1.8847,-2.12071 -6.8429,0.39176 -10.2658,0.58614 -3.423,0.19438 -12.8868,-3.33801 -19.3316,-5.00851 -6.4449,-1.6705 -6.1815,1.55013 -9.2737,2.3237 -3.0922,0.77356 -9.0273,0.0176 -13.5424,0.0249 -4.5151,0.007 -6.4719,3.84458 -9.7093,5.76537 -3.2374,1.92079 -13.6114,0.42606 -20.4185,0.63759 -6.8072,0.21153 -8.6096,-4.6318 -12.9158,-6.94921 -4.3063,-2.3174 -6.5009,-3.37285 -9.7528,-5.06077 -3.2519,-1.68792 -6.9981,-1.554 -10.4987,-2.33249 -3.5005,-0.7785 -32.1705,-10.04591 -48.2573,-15.07037 -16.0868,-5.02445 -21.7585,-5.96271 -32.6392,-8.94557 -10.8807,-2.98286 -8.2993,4.49815 -12.4505,6.74572 -4.1511,2.24758 -7.6543,0.31542 -11.483,0.47163 -3.8287,0.1562 -6.8277,-3.43485 -10.243,-5.15378 -3.4153,-1.71893 -7.067,-0.69145 -10.602,-1.03868 -3.5349,-0.34722 -7.3424,-2.77924 -11.0151,-4.17035 -3.6728,-1.39112 -8.6744,0.51418 -13.0131,0.76978 -4.3387,0.25559 -13.0789,-0.0198 -19.6199,-0.0313 -6.5409,-0.0114 -12.857,-1.59581 -19.2871,-2.39522 -6.43,-0.7994 -9.4305,-0.88618 -14.1472,-1.33077 -4.7167,-0.44459 -6.2572,1.77076 -9.3873,2.65464 -3.1302,0.88388 -8.5484,-1.15196 -12.824,-1.72944 -4.2757,-0.57747 -11.9089,-1.27132 -17.8649,-1.90848 -5.9559,-0.63716 -10.9961,0.64342 -16.4957,0.96363 -5.4996,0.32021 -15.4657,4.33099 -23.2,6.49498 -7.7343,2.164 -19.6221,-0.86464 -29.4347,-1.29846 -9.8125,-0.43383 -5.0681,-3.77729 -7.6037,-5.66744 -2.5356,-1.89014 -12.696,-2.65267 -19.0454,-3.98051 -6.3495,-1.32784 -11.3563,-0.24019 -17.0359,-0.36179 -5.6796,-0.12159 -7.5801,-6.14932 -11.3717,-9.22549 -3.7915,-3.07616 2.9241,-6.91111 4.3847,-10.36817 1.4606,-3.45706 10.3426,-4.36877 15.5124,-6.55465 5.1698,-2.18588 6.4131,-7.83541 9.6181,-11.75462 3.205,-3.91921 2.1784,-6.54641 3.2661,-9.82112 1.0877,-3.2747 7.1455,-8.60883 10.7167,-12.91475 3.5712,-4.30591 20.7752,-10.9387 31.1613,-16.40955 10.3861,-5.47085 12.6987,-13.25069 19.0466,-19.87754 6.3478,-6.62684 3.3803,-8.6068 5.069,-12.9117 1.6886,-4.3049 -6.6169,-5.1902 -9.9269,-7.7868 -3.3099,-2.5966 -4.7963,5.63654 -7.1959,8.45331 -2.3997,2.81677 -1.9339,6.17887 -2.9024,9.26681 -0.9685,3.08793 -7.6938,6.08728 -11.5422,9.12942 -3.8484,3.04214 -11.7955,1.46887 -17.6948,2.20181 -5.8992,0.73294 -13.5434,0.73336 -20.3165,1.09854 -6.7732,0.36519 -11.0226,-5.80717 -16.5355,-8.71226 -5.5128,-2.90509 -10.3417,-1.42883 -15.5141,-2.14474 -5.1724,-0.71591 -6.4303,5.54279 -9.647,8.31269 -3.2167,2.7699 -10.5136,3.68078 -15.7718,5.51967 -5.2583,1.83889 -5.5235,6.75289 -8.2867,10.12783 -2.7632,3.37494 -4.813,9.27756 -7.2211,13.91484 -2.408,4.63729 -4.1546,10.47509 -6.2334,15.71113 -2.0788,5.23604 -8.7924,1.81466 -13.1901,2.72049 -4.3977,0.90582 -3.7538,-5.43411 -5.6322,-8.15266 -1.8785,-2.71855 -10.1885,-6.52823 -15.2842,-9.79384 -5.0957,-3.26561 -11.378,-6.67315 -17.0685,-10.01123 -5.6905,-3.33808 -16.9448,3.65316 -25.4187,5.47824 -8.4739,1.82508 -15.85028,6.83135 -23.77693,10.24553 -7.92665,3.41418 -11.50998,1.72345 -17.26647,2.58367 -5.75648,0.86022 -10.74247,-1.43937 -16.11521,-2.16055 -5.37274,-0.72118 -11.61534,4.48641 -17.42451,6.72812 -5.80917,2.2417 -2.72485,4.07959 -4.08877,6.11788 -1.36392,2.0383 -8.39207,-0.49655 -12.58961,-0.74632 -4.19754,-0.24978 -8.73045,-0.003 -13.09718,-0.006 -4.36673,-0.003 -6.96325,1.09011 -10.44637,1.63366 -3.48313,0.54355 -5.9699,-1.4958 -8.95634,-2.2452 -2.98645,-0.7494 -8.7176,3.10818 -13.0779,4.66077 -4.3603,1.55259 -12.99248,4.68756 -19.49022,7.02984 -6.49774,2.34228 -13.46084,6.13979 -20.19277,9.20818 -6.73192,3.06839 -7.87894,0.48395 -11.81991,0.72442 -3.94097,0.24048 -8.55699,4.25205 -12.83698,6.37658 -4.27999,2.12452 -10.14408,-1.63135 -15.21761,-2.44853 -5.07354,-0.81718 -10.22274,-3.91917 -15.33561,-5.88026 -5.11287,-1.96108 -9.56234,-0.39547 -14.34502,-0.59471 -4.78267,-0.19923 -8.96394,-1.47357 -13.44742,-2.21186 -4.48347,-0.73828 -7.34993,1.10132 -11.02639,1.65048 -3.67647,0.54915 -17.86343,1.99812 -26.79665,2.99568 -8.93321,0.99756 -9.02979,6.31194 -13.54619,9.46641 -4.5164,3.15448 -7.3292,0.2618 -10.99529,0.3912 -3.6661,0.12939 -5.56208,0.72871 -8.34461,1.09156 -2.78254,0.36286 -3.04009,6.87641 -4.56163,10.31311 -1.52154,3.4367 -1.16811,10.43258 -1.75366,15.64737 -0.58555,5.21479 -6.44968,5.74455 -9.67602,8.61533 -3.22634,2.87078 -3.53803,9.30716 -5.30854,13.95924 -1.77052,4.65207 1.82938,7.13998 2.74258,10.70847 0.91319,3.56849 6.74577,1.27383 10.11715,1.90924 3.37138,0.63542 15.76698,-9.12681 23.64898,-13.69172 7.88199,-4.5649 18.4818,-5.02211 27.72121,-7.53467 9.2394,-2.51256 11.37691,8.32673 17.06387,12.4886 5.68695,4.16186 5.20646,7.5631 7.80819,11.34316 2.60173,3.78005 -3.78721,13.76372 -5.68231,20.64409 -1.8951,6.88036 -11.67359,6.83404 -17.51189,10.24956 -5.83829,3.41552 -17.01213,10.60466 -25.5197,15.9055 -8.50757,5.30083 -8.18028,1.4826 -12.27192,2.2224 -4.09165,0.7398 -8.22893,5.80518 -12.34489,8.70628 -4.11596,2.90109 -1.30701,5.67431 -1.96202,8.50997 -0.65501,2.83566 -0.4562,8.06183 -0.6858,12.09124 -0.2296,4.02941 -4.85246,7.93881 -7.2802,11.90671 -2.42773,3.96791 -10.66397,14.87989 -15.99745,22.31833 -5.33348,7.43844 -4.75155,14.43272 -7.12882,21.64759 -2.37728,7.21486 3.1831,9.70374 4.77315,14.55411 1.59006,4.85037 5.177,3.49927 7.76399,5.2474 2.587,1.74814 3.16538,10.06122 4.74658,15.09033 1.58119,5.02911 -3.76754,11.85975 -5.65281,17.78813 -1.88527,5.92837 -20.00616,14.49869 -30.01073,21.74653 -10.00458,7.24785 -10.0976,-1.4772 -15.1479,-2.2173 -5.0503,-0.7401 -9.88518,0.7417 -14.82927,1.11105 -4.94408,0.36935 -7.11062,1.30202 -10.66743,1.95153 -3.55682,0.64952 -11.47577,-1.67843 -17.21515,-2.51915 -5.73938,-0.84071 -9.57899,2.79564 -14.36999,4.19195 -4.79099,1.39632 -8.41171,7.4366 -12.61907,11.1534 -4.20736,3.7168 -7.04541,2.40762 -10.56961,3.60993 -3.52421,1.20231 -9.40454,3.94288 -14.10832,5.91282 -4.70377,1.96994 -5.35614,0.18148 -8.03571,0.27073 -2.67958,0.0892 -3.74119,3.29656 -5.61328,4.94335 -1.87209,1.64678 -1.91138,5.49545 -2.86856,8.24167 -0.95719,2.74623 -6.65013,3.23522 -9.9767,4.85134 -3.32656,1.61611 -3.02281,-5.08916 -4.53572,-7.63524 -1.51291,-2.54608 2.56415,-10.47785 3.84472,-15.71827 1.28058,-5.24043 -3.21835,-5.68984 -4.82903,-8.53626 -1.61068,-2.84641 -5.59642,1.60526 -8.39612,2.40639 -2.79971,0.80113 -6.53467,6.10716 -9.8035,9.15924 -3.26883,3.05208 -9.99517,-1.23131 -14.99425,-1.84847 -4.99909,-0.61715 -17.21762,-4.592 -25.82793,-6.8895 -8.61031,-2.2975 -13.15391,-4.31051 -19.73236,-6.46727 -6.57846,-2.15676 -5.05169,-17.74029 -7.57904,-26.61194" /><circle
       style="opacity:0;fill:#111111;stroke:#ffffff;stroke-width:48;fill-opacity:1"
       id="path291"
       cx="4265.2476"
       cy="1569.3463"
       r="1" /><circle
       style="opacity:0;fill:#222222;fill-opacity:1;stroke:#ffffff;stroke-width:48"
       id="path4669"
       cx="2818.3923"
       cy="870.82458"
       r="1" /><circle
       style="opacity:0;fill:#333333;fill-opacity:1;stroke:#ffffff;stroke-width:48"
       id="path4840"
       cx="2339.3098"
       cy="795.18335"
       r="1" /><circle
       style="opacity:0;fill:#444444;fill-opacity:1;stroke:#ffffff;stroke-width:48"
       id="path6414"
       cx="2181.1667"
       cy="647.37238"
       r="1" /><circle
       style="opacity:0;fill:#555555;fill-opacity:1;stroke:#ffffff;stroke-width:48"
       id="path8039"
       cx="1740.6924"
       cy="379.7666"
       r="1" /><circle
       style="opacity:0;fill:#666666;fill-opacity:1;stroke:#ffffff;stroke-width:48"
       id="path11827"
       cx="1739.0693"
       cy="476.05994"
       r="1" /><circle
       style="opacity:0;fill:#777777;fill-opacity:1;stroke:#ffffff;stroke-width:48"
       id="path17119"
       cx="1580.5939"
       cy="438.65088"
       r="1" /><circle
       style="opacity:0;fill:#888888;fill-opacity:1;stroke:#ffffff;stroke-width:48"
       id="path18021"
       cx="394.60657"
       cy="637.82819"
       r="1" /><circle
       style="opacity:0;fill:#999999;fill-opacity:1;stroke:#ffffff;stroke-width:48"
       id="path21083"
       cx="1235.2858"
       cy="402.34732"
       r="1"  /><circle
       style="opacity:0;fill:#aaaaaa;fill-opacity:1;stroke:#ffffff;stroke-width:48"
       id="path27795"
       cx="602.27557"
       cy="405.03143"
       r="1" /><circle
       style="opacity:0;fill:#bbbbbb;fill-opacity:1;stroke:#ffffff;stroke-width:48"
       id="path28700"
       cx="1212.4004"
       cy="317.56384"
       r="1" /></g></svg>
